<svg width="30" height="30" viewBox="0 0 30 30" fill="none" xmlns="http://www.w3.org/2000/svg">
<path d="M21.6479 0.0965046C23.1699 0.165967 24.2219 0.389608 25.1956 0.768015C26.1697 1.14658 26.9074 1.62647 27.6405 2.35959C28.3735 3.09268 28.8534 3.83028 29.2321 4.80452C29.6104 5.7783 29.834 6.83023 29.9035 8.35216C29.9895 10.2396 30 10.9049 30 15C30 19.0951 29.9895 19.7604 29.9035 21.6479C29.834 23.1698 29.6104 24.2217 29.232 25.1958C28.8533 26.1698 28.3735 26.9074 27.6405 27.6403C26.9075 28.3735 26.1697 28.8534 25.1955 29.232C24.2215 29.6104 23.1697 29.834 21.6479 29.9034C19.7609 29.9895 19.0957 30 15 30C10.9043 30 10.2391 29.9895 8.35215 29.9034C6.83033 29.834 5.77838 29.6104 4.80428 29.232C3.83021 28.8534 3.09249 28.3735 2.35953 27.6404C1.62647 26.9073 1.14652 26.1696 0.767898 25.1955C0.389554 24.2217 0.165962 23.1698 0.0965049 21.6479C0.0104412 19.7616 0 19.0968 0 15C0 10.9032 0.0104412 10.2384 0.0965059 8.35207C0.165962 6.83023 0.389554 5.7783 0.767953 4.80438C1.14649 3.83038 1.62642 3.0927 2.35947 2.35966C3.09249 1.62655 3.83021 1.14662 4.80432 0.768019C5.77795 0.389621 6.83012 0.165967 8.35205 0.0965045C10.2384 0.0104403 10.9032 0 15 0C19.0968 0 19.7616 0.0104404 21.6479 0.0965046ZM15 3.33333C10.9495 3.33333 10.33 3.34306 8.504 3.42637C7.34518 3.47926 6.6494 3.62716 6.01184 3.87494C5.46747 4.08653 5.12157 4.31155 4.71655 4.71662C4.31145 5.12171 4.08641 5.46761 3.87495 6.01171C3.62712 6.64957 3.47926 7.34523 3.42637 8.50402C3.34306 10.33 3.33333 10.9495 3.33333 15C3.33333 19.0505 3.34306 19.67 3.42637 21.496C3.47926 22.6548 3.62712 23.3504 3.87488 23.9881C4.08643 24.5324 4.3115 24.8783 4.71662 25.2835C5.12157 25.6884 5.46747 25.9135 6.01166 26.125C6.64964 26.3729 7.34526 26.5207 8.50405 26.5736C10.3308 26.6569 10.9506 26.6667 15 26.6667C19.0494 26.6667 19.6692 26.6569 21.496 26.5736C22.6547 26.5207 23.3503 26.3729 23.9881 26.125C24.5325 25.9135 24.8784 25.6885 25.2834 25.2834C25.6884 24.8784 25.9135 24.5324 26.125 23.9883C26.3729 23.3504 26.5207 22.6548 26.5736 21.496C26.6569 19.6688 26.6667 19.0488 26.6667 15C26.6667 10.9512 26.6569 10.3312 26.5736 8.50404C26.5207 7.34523 26.3729 6.64957 26.1251 6.01197C25.9135 5.46755 25.6885 5.12162 25.2834 4.71655C24.8785 4.31156 24.5325 4.08653 23.9881 3.87496C23.3505 3.62715 22.6548 3.47926 21.496 3.42637C19.67 3.34306 19.0505 3.33333 15 3.33333Z" fill="black"/>
<path d="M12.3527 10.4346C12.8107 10.4346 13.2269 10.4763 13.6054 10.5654C13.9818 10.6558 14.3034 10.795 14.5742 10.9898C14.8417 11.1846 15.0524 11.442 15.2005 11.769C15.3473 12.096 15.4224 12.4995 15.4224 12.9726C15.4224 13.4875 15.3114 13.9189 15.0916 14.2667C14.8711 14.6146 14.5455 14.8929 14.1116 15.1155C14.7027 15.2964 15.1399 15.6165 15.4308 16.0687C15.7231 16.5279 15.8647 17.0775 15.8647 17.7107C15.8647 18.2325 15.7799 18.6778 15.5972 19.0535C15.4145 19.4361 15.1601 19.7492 14.8404 19.9927C14.5272 20.2348 14.1553 20.4102 13.7508 20.5264C13.3529 20.6411 12.934 20.7031 12.5047 20.7031H7.82617V10.4394H12.3527V10.4346ZM18.8782 18.8962C19.1653 19.194 19.5783 19.3436 20.1139 19.3436C20.4989 19.3436 20.8316 19.2406 21.1122 19.0326C21.3888 18.8308 21.5558 18.6082 21.621 18.3786H23.3095C23.0466 19.2691 22.6258 19.9092 22.0699 20.2919C21.5153 20.6815 20.8407 20.8694 20.0604 20.8694C19.5144 20.8694 19.027 20.7789 18.5781 20.5911C18.1391 20.4032 17.7691 20.1388 17.456 19.7979C17.1532 19.457 16.919 19.0465 16.7533 18.5664C16.5882 18.0864 16.5099 17.5576 16.5099 16.9871C16.5099 16.4284 16.598 15.9156 16.7729 15.4356C16.949 14.9486 17.193 14.545 17.5036 14.1902C17.8265 13.8354 18.1971 13.5675 18.6362 13.3595C19.0753 13.1515 19.5496 13.0582 20.0846 13.0582C20.6783 13.0582 21.1872 13.1723 21.6374 13.4221C22.0745 13.6587 22.4333 13.9926 22.7204 14.3961C23.0074 14.8038 23.2097 15.2728 23.3337 15.8015C23.4576 16.3234 23.4968 16.873 23.4707 17.4574H18.4535C18.4535 18.0418 18.6362 18.5929 18.9167 18.8941L18.8645 18.915L18.8782 18.8962ZM12.1974 18.931C12.4042 18.931 12.6019 18.9101 12.7885 18.8663C12.9777 18.8246 13.146 18.7515 13.2863 18.6576C13.4233 18.5637 13.5408 18.4294 13.6256 18.252C13.7104 18.085 13.7495 17.8554 13.7495 17.584C13.7495 17.0622 13.606 16.6865 13.332 16.4569C13.0514 16.2343 12.6861 16.123 12.2294 16.123H9.94003V18.9407H12.1974V18.9199V18.931ZM21.075 15C20.8453 14.7322 20.4617 14.5882 19.9939 14.5882C19.6886 14.5882 19.4361 14.6397 19.2332 14.7538C19.0361 14.8581 18.8743 14.9973 18.7504 15.1642C18.6264 15.3312 18.5436 15.4982 18.4946 15.6861C18.4457 15.8669 18.4163 16.0339 18.4065 16.18H21.5134C21.4677 15.6582 21.2981 15.2756 21.0697 15.0042V15.0112L21.075 15ZM12.08 14.5722C12.4545 14.5722 12.765 14.4789 13.0097 14.2855C13.2537 14.0977 13.3711 13.7846 13.3711 13.3546C13.3711 13.1153 13.3255 12.9198 13.2537 12.766C13.1689 12.6129 13.058 12.4947 12.9275 12.4098C12.7905 12.3235 12.6339 12.2637 12.4577 12.231C12.2816 12.1941 12.0924 12.1795 11.9097 12.1795H9.9335V14.5729H12.08V14.5722ZM18.0157 11.1227H21.9094V12.1343H18.0157V11.1143V11.1213V11.1227Z" fill="black"/>
</svg>
