<svg width="28" height="31" viewBox="0 0 28 31" fill="none" xmlns="http://www.w3.org/2000/svg">
<path d="M1 13L10.6086 21.8695C12.5239 23.6375 15.4761 23.6375 17.3914 21.8695L27 13" stroke="#303030"/>
<rect x="0.5" y="10.999" width="27" height="19" rx="4.5" stroke="#303030"/>
<mask id="path-3-inside-1" fill="white">
<path fill-rule="evenodd" clip-rule="evenodd" d="M13.9997 26.831C13.96 26.8168 11.9002 26.0736 10.8277 24.7095C9.88543 23.5111 9.57373 21.6769 10.8277 20.819C12.5187 19.662 13.9764 22.0361 14 22.0748C14.0237 22.0361 15.4813 19.662 17.1723 20.819C18.4263 21.6769 18.1146 23.5111 17.1723 24.7095C16.0998 26.0736 14.0401 26.8168 14.0003 26.831V26.8313C14.0003 26.8313 14.0002 26.8312 14 26.8312C13.9998 26.8312 13.9997 26.8313 13.9997 26.8313V26.831Z"/>
</mask>
<path fill-rule="evenodd" clip-rule="evenodd" d="M13.9997 26.831C13.96 26.8168 11.9002 26.0736 10.8277 24.7095C9.88543 23.5111 9.57373 21.6769 10.8277 20.819C12.5187 19.662 13.9764 22.0361 14 22.0748C14.0237 22.0361 15.4813 19.662 17.1723 20.819C18.4263 21.6769 18.1146 23.5111 17.1723 24.7095C16.0998 26.0736 14.0401 26.8168 14.0003 26.831V26.8313C14.0003 26.8313 14.0002 26.8312 14 26.8312C13.9998 26.8312 13.9997 26.8313 13.9997 26.8313V26.831Z" fill="white"/>
<path d="M10.8277 24.7095L10.0416 25.3276H10.0416L10.8277 24.7095ZM13.9997 26.831H14.9997V26.1273L14.3372 25.8897L13.9997 26.831ZM10.8277 20.819L11.3923 21.6443L10.8277 20.819ZM14 22.0748L13.1463 22.5955L14 23.9954L14.8538 22.5955L14 22.0748ZM17.1723 20.819L16.6077 21.6443L16.6077 21.6443L17.1723 20.819ZM17.1723 24.7095L17.9584 25.3276V25.3276L17.1723 24.7095ZM14.0003 26.831L13.6628 25.8897L13.0003 26.1273V26.831H14.0003ZM14.0003 26.8313L13.6648 27.7733L15.0003 28.2489V26.8313H14.0003ZM14 26.8312L14.3377 25.8899L14.0002 25.7688L13.6627 25.8898L14 26.8312ZM13.9997 26.8313H12.9997V28.2489L14.3352 27.7733L13.9997 26.8313ZM10.0416 25.3276C10.7001 26.1651 11.62 26.7699 12.3207 27.1536C13.0366 27.5456 13.614 27.7551 13.6622 27.7724L14.3372 25.8897C14.3456 25.8927 13.8734 25.7235 13.2813 25.3993C12.6741 25.0669 12.0278 24.6179 11.6138 24.0914L10.0416 25.3276ZM10.263 19.9937C9.28039 20.666 8.95252 21.7164 9.00559 22.691C9.05731 23.6409 9.46266 24.5913 10.0416 25.3276L11.6138 24.0914C11.2505 23.6293 11.0288 23.0635 11.0026 22.5822C10.9778 22.1256 11.121 21.8299 11.3923 21.6443L10.263 19.9937ZM14.8538 21.5541C14.8257 21.5081 14.3799 20.779 13.6561 20.2115C13.289 19.9237 12.7925 19.6312 12.1927 19.5344C11.5606 19.4325 10.8939 19.562 10.263 19.9937L11.3923 21.6443C11.6069 21.4975 11.7566 21.4899 11.8742 21.5089C12.024 21.5331 12.2105 21.6196 12.4221 21.7855C12.8558 22.1255 13.1507 22.6028 13.1463 22.5955L14.8538 21.5541ZM14.8538 22.5955C14.8493 22.6028 15.1442 22.1255 15.5779 21.7855C15.7895 21.6196 15.976 21.5331 16.1259 21.5089C16.2435 21.4899 16.3931 21.4975 16.6077 21.6443L17.737 19.9937C17.1061 19.562 16.4394 19.4325 15.8073 19.5344C15.2075 19.6312 14.711 19.9237 14.3439 20.2115C13.6201 20.779 13.1743 21.5081 13.1463 21.5541L14.8538 22.5955ZM16.6077 21.6443C16.879 21.8299 17.0223 22.1256 16.9974 22.5822C16.9712 23.0635 16.7496 23.6293 16.3862 24.0914L17.9584 25.3276C18.5374 24.5913 18.9427 23.6409 18.9944 22.691C19.0475 21.7164 18.7196 20.666 17.737 19.9937L16.6077 21.6443ZM16.3862 24.0914C15.9722 24.6179 15.3259 25.0669 14.7187 25.3993C14.1267 25.7235 13.6544 25.8927 13.6628 25.8897L14.3378 27.7724C14.386 27.7551 14.9634 27.5456 15.6793 27.1536C16.3801 26.7699 17.2999 26.1651 17.9584 25.3276L16.3862 24.0914ZM15.0003 26.8313V26.831H13.0003V26.8313H15.0003ZM13.6624 27.7724C13.6628 27.7726 13.6633 27.7727 13.6637 27.7729C13.6639 27.773 13.6641 27.773 13.6643 27.7731C13.6644 27.7731 13.6645 27.7732 13.6646 27.7732C13.6646 27.7732 13.6647 27.7732 13.6647 27.7733C13.6647 27.7733 13.6647 27.7733 13.6648 27.7733C13.6648 27.7733 13.6648 27.7733 13.6648 27.7733C13.6648 27.7733 13.6648 27.7733 13.6648 27.7733C13.6648 27.7733 13.6648 27.7733 13.6648 27.7733C13.6648 27.7733 13.6648 27.7733 13.6648 27.7733C13.6648 27.7733 13.6648 27.7733 14.0003 26.8313C14.3358 25.8892 14.3358 25.8892 14.3358 25.8892C14.3358 25.8892 14.3358 25.8892 14.3358 25.8892C14.3358 25.8892 14.3358 25.8892 14.3358 25.8892C14.3358 25.8892 14.3358 25.8892 14.3358 25.8892C14.3358 25.8892 14.3358 25.8892 14.3358 25.8892C14.3359 25.8892 14.3359 25.8892 14.3359 25.8893C14.3359 25.8893 14.336 25.8893 14.336 25.8893C14.3361 25.8893 14.3362 25.8894 14.3363 25.8894C14.3365 25.8895 14.3366 25.8895 14.3368 25.8896C14.3371 25.8897 14.3374 25.8898 14.3377 25.8899L13.6624 27.7724ZM13.6627 25.8898C13.6629 25.8897 13.6632 25.8896 13.6634 25.8895C13.6635 25.8895 13.6637 25.8894 13.6638 25.8894C13.6639 25.8893 13.664 25.8893 13.664 25.8893C13.6641 25.8893 13.6641 25.8893 13.6641 25.8892C13.6642 25.8892 13.6642 25.8892 13.6642 25.8892C13.6642 25.8892 13.6642 25.8892 13.6642 25.8892C13.6642 25.8892 13.6642 25.8892 13.6642 25.8892C13.6642 25.8892 13.6642 25.8892 13.6642 25.8892C13.6642 25.8892 13.6642 25.8892 13.6642 25.8892C13.6643 25.8892 13.6643 25.8892 13.9997 26.8313C14.3352 27.7733 14.3352 27.7733 14.3352 27.7733C14.3352 27.7733 14.3352 27.7733 14.3352 27.7733C14.3352 27.7733 14.3352 27.7733 14.3352 27.7733C14.3352 27.7733 14.3352 27.7733 14.3352 27.7733C14.3352 27.7733 14.3352 27.7733 14.3352 27.7733C14.3353 27.7733 14.3353 27.7733 14.3353 27.7733C14.3353 27.7733 14.3354 27.7732 14.3354 27.7732C14.3355 27.7732 14.3356 27.7732 14.3357 27.7731C14.3358 27.7731 14.336 27.773 14.3362 27.773C14.3365 27.7728 14.3369 27.7727 14.3373 27.7726L13.6627 25.8898ZM14.9997 26.8313V26.831H12.9997V26.8313H14.9997Z" fill="#F46B8B" mask="url(#path-3-inside-1)"/>
</svg>
