<svg width="43" height="42" viewBox="0 0 43 42" fill="none" xmlns="http://www.w3.org/2000/svg">
<circle cx="11" cy="12" r="11" fill="#F46B8B"/>
<circle cx="23" cy="17" r="11" fill="#FFBECD"/>
<path d="M17.8333 1C14.7018 1 11.6406 1.92863 9.03681 3.66845C6.43303 5.40827 4.40363 7.88114 3.20525 10.7744C2.00686 13.6676 1.69331 16.8512 2.30424 19.9226C2.91517 22.994 4.42315 25.8153 6.63748 28.0297C8.85182 30.2441 11.673 31.7521 14.7444 32.363C17.8158 32.974 20.9993 32.6604 23.8925 31.462C26.7856 30.2636 29.2585 28.2341 30.9983 25.6303C32.7381 23.0265 33.6667 19.9652 33.6667 16.8336C33.6667 14.7543 33.2571 12.6954 32.4614 10.7744C31.6657 8.85334 30.4995 7.10785 29.0292 5.63756C27.5589 4.16727 25.8135 3.00098 23.8925 2.20526C21.9715 1.40955 19.9126 1 17.8333 1V1Z" stroke="black" stroke-miterlimit="10"/>
<path d="M29 28L42.0002 41.0009L29 28Z" fill="white"/>
<path d="M29 28L42.0002 41.0009" stroke="black" stroke-miterlimit="10" stroke-linecap="round"/>
</svg>
