<svg width="41" height="44" viewBox="0 0 41 44" fill="none" xmlns="http://www.w3.org/2000/svg">
<path d="M2.09977 27.9603L7.76641 20.552L12.7053 24.3297L15.2364 21.0207C13.325 17.3275 13.6975 12.7979 16.2664 9.43946C19.9119 4.67343 26.7545 3.76194 31.5205 7.40748C36.2865 11.053 37.198 17.8956 33.5525 22.6616C30.9836 26.0201 26.7189 27.5529 22.6447 26.6873L12.5581 39.8742L5.14978 34.2075L7.03866 31.7381L2.09977 27.9603ZM8.34698 24.9103L6.4581 27.3798L11.397 31.1575L9.50811 33.627L11.9776 35.5158L21.4786 23.0945L22.5231 23.4433C25.6413 24.4584 29.0903 23.378 31.083 20.7727C33.6897 17.3649 33.0395 12.4836 29.6316 9.87692C26.2238 7.27027 21.3425 7.92051 18.7358 11.3283C16.743 13.9336 16.6031 17.5451 18.3991 20.2889L19.0092 21.2056L13.2859 28.6881L8.34698 24.9103ZM21.2053 13.2172C22.7636 11.1799 25.7055 10.788 27.7427 12.3464C29.78 13.9047 30.1719 16.8466 28.6136 18.8839C27.0553 20.9212 24.1134 21.313 22.0761 19.7547C20.0388 18.1964 19.6469 15.2545 21.2053 13.2172ZM26.1442 16.995C26.6636 16.3159 26.533 15.3353 25.8539 14.8158C25.1748 14.2964 24.1941 14.427 23.6747 15.1061C23.1553 15.7852 23.2859 16.7658 23.965 17.2853C24.6441 17.8047 25.6247 17.6741 26.1442 16.995Z" fill="#00E8BE"/>
</svg>
