<svg width="33" height="25" viewBox="0 0 33 25" fill="none" xmlns="http://www.w3.org/2000/svg">
<mask id="path-1-inside-1" fill="white">
<path fill-rule="evenodd" clip-rule="evenodd" d="M16.5524 24.9987C16.399 24.9437 8.31621 22.0278 4.10762 16.6753C0.410857 11.9738 -0.812005 4.77762 4.10754 1.41176C10.7428 -3.12797 16.4623 6.18925 16.5535 6.33882C16.6447 6.18925 22.3642 -3.12797 28.9995 1.41176C33.919 4.77762 32.6962 11.9738 28.9994 16.6753C24.7908 22.0278 16.708 24.9437 16.5546 24.9987V24.9995C16.5546 24.9995 16.5542 24.9994 16.5535 24.9991C16.5528 24.9994 16.5524 24.9995 16.5524 24.9995V24.9987Z"/>
</mask>
<path d="M4.10762 16.6753L6.85896 14.5119V14.5119L4.10762 16.6753ZM16.5524 24.9987H20.0524V22.5354L17.7335 21.704L16.5524 24.9987ZM4.10754 1.41176L2.13121 -1.47686L4.10754 1.41176ZM16.5535 6.33882L13.5653 8.16108L16.5535 13.0612L19.5417 8.16108L16.5535 6.33882ZM28.9995 1.41176L30.9758 -1.47686L28.9995 1.41176ZM28.9994 16.6753L26.2481 14.5119V14.5119L28.9994 16.6753ZM16.5546 24.9987L15.3735 21.704L13.0546 22.5354V24.9987H16.5546ZM16.5546 24.9995L15.3817 28.2971L20.0546 29.9591V24.9995H16.5546ZM16.5535 24.9991L17.7331 21.7039L16.5535 21.2816L15.3739 21.7039L16.5535 24.9991ZM16.5524 24.9995H13.0524V29.9422L17.7146 28.3009L16.5524 24.9995ZM1.35627 18.8387C3.88856 22.0592 7.44015 24.399 10.1698 25.8935C12.9524 27.4171 15.1955 28.2304 15.3713 28.2934L17.7335 21.704C17.7559 21.7121 15.8809 21.0399 13.5316 19.7536C11.1294 18.4383 8.53527 16.6439 6.85896 14.5119L1.35627 18.8387ZM2.13121 -1.47686C-1.57334 1.05772 -2.82058 5.01917 -2.61836 8.73295C-2.42083 12.3606 -0.869418 16.008 1.35627 18.8387L6.85896 14.5119C5.38789 12.641 4.47949 10.3396 4.37129 8.35237C4.26777 6.45122 4.86887 5.13166 6.08388 4.30038L2.13121 -1.47686ZM19.5417 4.51656C19.4393 4.34862 17.7226 1.54123 14.9442 -0.637415C13.5369 -1.74097 11.6547 -2.84532 9.39646 -3.20988C7.02535 -3.59267 4.5188 -3.1104 2.13121 -1.47686L6.08388 4.30038C7.01392 3.66406 7.71054 3.60858 8.28085 3.70065C8.96404 3.81094 9.76152 4.19404 10.6249 4.87102C12.3878 6.25345 13.5765 8.17945 13.5653 8.16108L19.5417 4.51656ZM19.5417 8.16108C19.5305 8.17945 20.7192 6.25345 22.4822 4.87102C23.3455 4.19404 24.143 3.81094 24.8262 3.70065C25.3965 3.60858 26.0931 3.66406 27.0231 4.30038L30.9758 -1.47686C28.5882 -3.1104 26.0817 -3.59267 23.7106 -3.20988C21.4523 -2.84532 19.5701 -1.74097 18.1628 -0.637415C15.3844 1.54123 13.6677 4.34862 13.5653 4.51656L19.5417 8.16108ZM27.0231 4.30038C28.2381 5.13166 28.8393 6.45122 28.7357 8.35237C28.6275 10.3396 27.7191 12.641 26.2481 14.5119L31.7507 18.8387C33.9764 16.008 35.5279 12.3606 35.7254 8.73295C35.9276 5.01917 34.6804 1.05772 30.9758 -1.47686L27.0231 4.30038ZM26.2481 14.5119C24.5718 16.6439 21.9776 18.4383 19.5754 19.7536C17.2261 21.0399 15.3511 21.7121 15.3735 21.704L17.7358 28.2934C17.9115 28.2304 20.1546 27.4171 22.9372 25.8935C25.6669 24.399 29.2185 22.0592 31.7507 18.8387L26.2481 14.5119ZM20.0546 24.9995V24.9987H13.0546V24.9995H20.0546ZM15.3739 28.2943C15.3754 28.2949 15.3768 28.2954 15.3781 28.2958C15.3788 28.2961 15.3794 28.2963 15.38 28.2965C15.3803 28.2966 15.3806 28.2967 15.3809 28.2968C15.381 28.2969 15.3812 28.2969 15.3813 28.297C15.3814 28.297 15.3815 28.297 15.3815 28.2971C15.3816 28.2971 15.3816 28.2971 15.3816 28.2971C15.3817 28.2971 15.3817 28.2971 15.3817 28.2971C15.3817 28.2971 15.3817 28.2971 15.3817 28.2971C15.3817 28.2971 15.3817 28.2971 15.3817 28.2971C15.3817 28.2971 15.3817 28.2971 16.5546 24.9995C17.7275 21.7019 17.7275 21.7019 17.7275 21.7019C17.7275 21.7019 17.7275 21.7019 17.7275 21.7019C17.7275 21.7019 17.7275 21.7019 17.7275 21.7019C17.7276 21.7019 17.7276 21.7019 17.7276 21.7019C17.7276 21.7019 17.7277 21.7019 17.7277 21.702C17.7278 21.702 17.7278 21.702 17.7279 21.702C17.728 21.7021 17.7282 21.7021 17.7283 21.7022C17.7286 21.7023 17.7288 21.7024 17.7291 21.7025C17.7296 21.7026 17.7301 21.7028 17.7306 21.703C17.7315 21.7033 17.7324 21.7036 17.7331 21.7039L15.3739 28.2943ZM15.3739 21.7039C15.3765 21.703 15.3791 21.702 15.3818 21.7011C15.3832 21.7006 15.3846 21.7001 15.3859 21.6996C15.3866 21.6994 15.3873 21.6991 15.388 21.6989C15.3884 21.6987 15.3888 21.6986 15.3891 21.6985C15.3893 21.6984 15.3895 21.6984 15.3896 21.6983C15.3897 21.6983 15.3898 21.6982 15.3899 21.6982C15.39 21.6982 15.39 21.6982 15.39 21.6982C15.3901 21.6982 15.3901 21.6981 15.3901 21.6981C15.3901 21.6981 15.3901 21.6981 15.3901 21.6981C15.3902 21.6981 15.3902 21.6981 16.5524 24.9995C17.7146 28.3009 17.7146 28.3009 17.7147 28.3009C17.7147 28.3009 17.7147 28.3009 17.7147 28.3009C17.7147 28.3009 17.7147 28.3009 17.7148 28.3009C17.7148 28.3008 17.7149 28.3008 17.7149 28.3008C17.715 28.3008 17.7151 28.3008 17.7152 28.3007C17.7153 28.3007 17.7155 28.3006 17.7157 28.3005C17.7161 28.3004 17.7164 28.3003 17.7168 28.3001C17.7175 28.2999 17.7183 28.2996 17.719 28.2994C17.7205 28.2988 17.722 28.2983 17.7235 28.2978C17.7266 28.2967 17.7298 28.2955 17.7331 28.2943L15.3739 21.7039ZM20.0524 24.9995V24.9987H13.0524V24.9995H20.0524Z" fill="#00E8BE" mask="url(#path-1-inside-1)"/>
</svg>
