<svg width="31" height="43" viewBox="0 0 31 43" fill="none" xmlns="http://www.w3.org/2000/svg">
<path d="M19.2556 6.74329L19.3071 6.6175C19.4812 6.24092 19.732 5.90268 20.0496 5.62033C20.4021 5.30695 20.8341 5.06515 21.3237 4.9183C21.8139 4.77129 22.3503 4.72314 22.8985 4.78553C23.4469 4.84794 23.9895 5.01904 24.4888 5.29026C24.988 5.56148 25.4269 5.9236 25.7777 6.3497C26.1284 6.77569 26.3799 7.25185 26.5233 7.74309C26.6666 8.23382 26.6989 8.72779 26.6278 9.19408C26.5568 9.65977 26.3836 10.094 26.1208 10.4724L26.1206 10.4726L15.124 26.3121L15.124 26.3121L15.1198 26.3181C14.929 26.5959 14.6123 26.8147 14.1974 26.8963C13.7782 26.9788 13.3009 26.9102 12.8703 26.6763C12.4398 26.4424 12.1225 26.0793 11.9635 25.6827C11.8062 25.2902 11.8174 24.9055 11.9466 24.5942L11.9466 24.5942L11.9493 24.5877L19.2556 6.74329ZM4.60854 31.9835C4.84738 31.5438 5.18054 31.1566 5.59354 30.8449C6.00696 30.5328 6.49583 30.2999 7.03685 30.1667C7.57822 30.0334 8.15987 30.0029 8.74844 30.0838C9.3371 30.1648 9.91651 30.355 10.4513 30.6456C10.9862 30.9362 11.4611 31.3187 11.8494 31.7685C12.2376 32.2182 12.5286 32.7228 12.7114 33.2495C12.894 33.7759 12.9648 34.3128 12.9279 34.8294C12.8912 35.3456 12.7476 35.8358 12.5088 36.2754C12.0294 37.1579 11.171 37.8236 10.0805 38.0922C8.98389 38.3623 7.75103 38.2028 6.66599 37.6133C5.58096 37.0238 4.77619 36.0763 4.40595 35.0094C4.03777 33.9484 4.12911 32.8659 4.60854 31.9835Z" stroke="#00E8BE" stroke-width="3"/>
</svg>
