<svg width="53" height="56" viewBox="0 0 53 56" fill="none" xmlns="http://www.w3.org/2000/svg">
<path fill-rule="evenodd" clip-rule="evenodd" d="M37.9843 9.28837L37.8755 9.22412L37.7949 9.17779L37.6846 9.11607C31.4503 5.66665 23.5572 7.80528 19.9846 14.0207C19.4086 15.0228 19.2543 16.2127 19.5556 17.3286C19.8569 18.4445 20.5891 19.3949 21.5912 19.9709C22.5933 20.5469 23.7831 20.7013 24.899 20.4C26.0149 20.0987 26.9654 19.3664 27.5414 18.3643C28.7228 16.3089 31.3709 15.5673 33.4916 16.7578C35.5876 17.991 36.2796 20.6525 35.0982 22.708C33.9095 24.776 31.2349 25.5141 29.1077 24.2914C28.1056 23.7154 26.9157 23.5611 25.7998 23.8624C24.684 24.1636 23.7335 24.8959 23.1575 25.898L20.2617 30.9358C19.6857 31.9379 19.5314 33.1278 19.8327 34.2437C20.134 35.3596 20.8662 36.31 21.8683 36.886C22.8704 37.462 24.0603 37.6164 25.1762 37.3151C26.292 37.0138 27.2425 36.2815 27.8185 35.2794L28.9109 33.3789C34.2171 34.3679 39.8077 32.005 42.655 27.0516C46.2276 20.8361 44.1021 12.9406 37.9843 9.28837ZM36.4276 11.7431L36.4881 11.7778C41.2659 14.6246 42.9109 20.7762 40.136 25.6037C37.7717 29.7171 32.9606 31.5428 28.5778 30.3205C28.2667 30.234 27.9357 30.2537 27.637 30.3763C27.3383 30.499 27.089 30.7177 26.9284 30.9978L25.2996 33.8316C25.1076 34.1656 24.7908 34.4097 24.4188 34.5101C24.0468 34.6106 23.6502 34.5591 23.3162 34.3671C22.9822 34.1751 22.7381 33.8583 22.6377 33.4863C22.5372 33.1144 22.5887 32.7177 22.7807 32.3837L25.6764 27.3458C25.8684 27.0118 26.1852 26.7677 26.5572 26.6673C26.9292 26.5669 27.3258 26.6183 27.6598 26.8103C31.1674 28.8265 35.6219 27.6269 37.6171 24.1558C39.6021 20.7024 38.418 16.2735 34.9495 14.2446L34.9294 14.233C31.4305 12.2571 27.0075 13.463 25.0225 16.9165C24.8305 17.2505 24.5136 17.4946 24.1417 17.595C23.7697 17.6955 23.3731 17.644 23.039 17.452C22.705 17.26 22.4609 16.9432 22.3605 16.5712C22.2601 16.1993 22.3115 15.8026 22.5035 15.4686C25.2784 10.6411 31.4232 8.96705 36.2866 11.662L36.4276 11.7431Z" fill="#00E8BE"/>
<path d="M15.6082 41.9838C15.8471 41.5442 16.1802 41.1569 16.5932 40.8452C17.0067 40.5331 17.4955 40.3003 18.0365 40.167C18.5779 40.0337 19.1596 40.0032 19.7481 40.0842C20.3368 40.1651 20.9162 40.3554 21.451 40.6459C21.9859 40.9365 22.4608 41.319 22.8491 41.7688C23.2373 42.2185 23.5283 42.7231 23.7111 43.2498C23.8937 43.7762 23.9645 44.3131 23.9276 44.8298C23.8909 45.3459 23.7473 45.8361 23.5085 46.2758C23.0291 47.1583 22.1707 47.824 21.0802 48.0925C19.9836 48.3626 18.7507 48.2031 17.6657 47.6136C16.5807 47.0242 15.7759 46.0767 15.4057 45.0097C15.0375 43.9487 15.1288 42.8663 15.6082 41.9838Z" stroke="#00E8BE" stroke-width="3"/>
</svg>
