<svg width="30" height="30" viewBox="0 0 30 30" fill="none" xmlns="http://www.w3.org/2000/svg">
<path d="M21.6479 0.0965046C23.1699 0.165967 24.2219 0.389608 25.1956 0.768015C26.1697 1.14658 26.9074 1.62647 27.6405 2.35959C28.3735 3.09268 28.8534 3.83028 29.2321 4.80452C29.6104 5.7783 29.834 6.83023 29.9035 8.35216C29.9895 10.2396 30 10.9049 30 15C30 19.0951 29.9895 19.7604 29.9035 21.6479C29.834 23.1698 29.6104 24.2217 29.232 25.1958C28.8533 26.1698 28.3735 26.9074 27.6405 27.6403C26.9075 28.3735 26.1697 28.8534 25.1955 29.232C24.2215 29.6104 23.1697 29.834 21.6479 29.9034C19.7609 29.9895 19.0957 30 15 30C10.9043 30 10.2391 29.9895 8.35215 29.9034C6.83033 29.834 5.77838 29.6104 4.80428 29.232C3.83021 28.8534 3.09249 28.3735 2.35953 27.6404C1.62647 26.9073 1.14652 26.1696 0.767898 25.1955C0.389554 24.2217 0.165962 23.1698 0.0965049 21.6479C0.0104412 19.7616 0 19.0968 0 15C0 10.9032 0.0104412 10.2384 0.0965059 8.35207C0.165962 6.83023 0.389554 5.7783 0.767953 4.80438C1.14649 3.83038 1.62642 3.0927 2.35947 2.35966C3.09249 1.62655 3.83021 1.14662 4.80432 0.768019C5.77795 0.389621 6.83012 0.165967 8.35205 0.0965045C10.2384 0.0104403 10.9032 0 15 0C19.0968 0 19.7616 0.0104404 21.6479 0.0965046ZM15 3.33333C10.9495 3.33333 10.33 3.34306 8.504 3.42637C7.34518 3.47926 6.6494 3.62716 6.01184 3.87494C5.46747 4.08653 5.12157 4.31155 4.71655 4.71662C4.31145 5.12171 4.08641 5.46761 3.87495 6.01171C3.62712 6.64957 3.47926 7.34523 3.42637 8.50402C3.34306 10.33 3.33333 10.9495 3.33333 15C3.33333 19.0505 3.34306 19.67 3.42637 21.496C3.47926 22.6548 3.62712 23.3504 3.87488 23.9881C4.08643 24.5324 4.3115 24.8783 4.71662 25.2835C5.12157 25.6884 5.46747 25.9135 6.01166 26.125C6.64964 26.3729 7.34527 26.5207 8.50405 26.5736C10.3308 26.6569 10.9506 26.6667 15 26.6667C19.0494 26.6667 19.6692 26.6569 21.496 26.5736C22.6547 26.5207 23.3503 26.3729 23.9881 26.125C24.5325 25.9135 24.8784 25.6885 25.2834 25.2834C25.6884 24.8784 25.9135 24.5324 26.125 23.9883C26.3729 23.3504 26.5207 22.6548 26.5736 21.496C26.6569 19.6688 26.6667 19.0488 26.6667 15C26.6667 10.9512 26.6569 10.3312 26.5736 8.50404C26.5207 7.34523 26.3729 6.64957 26.1251 6.01197C25.9135 5.46755 25.6885 5.12161 25.2834 4.71655C24.8785 4.31156 24.5325 4.08653 23.9881 3.87496C23.3505 3.62715 22.6548 3.47926 21.496 3.42637C19.67 3.34306 19.0505 3.33333 15 3.33333Z" fill="black"/>
<path d="M8.00707 21.8364V12.6407H10.4854V21.8364H8.00707ZM9.23718 11.5464C8.85127 11.5464 8.51962 11.4111 8.24224 11.1404C7.96486 10.8698 7.82617 10.5462 7.82617 10.1697C7.82617 9.78138 7.96486 9.45779 8.24224 9.19892C8.51962 8.92829 8.85127 8.79297 9.23718 8.79297C9.63516 8.79297 9.96681 8.92829 10.2321 9.19892C10.5095 9.45779 10.6482 9.78138 10.6482 10.1697C10.6482 10.5462 10.5095 10.8698 10.2321 11.1404C9.96681 11.4111 9.63516 11.5464 9.23718 11.5464Z" fill="black"/>
<path d="M13.328 21.8364V12.6407H15.8064V13.3997C16.5179 12.776 17.3983 12.4642 18.4475 12.4642C19.1831 12.4642 19.8283 12.6231 20.3831 12.9408C20.9499 13.2467 21.3901 13.6762 21.7037 14.2292C22.0172 14.7705 22.174 15.4059 22.174 16.1354V21.8364H19.6957V16.4884C19.6957 15.8883 19.5208 15.4177 19.1711 15.0764C18.8213 14.7234 18.345 14.5469 17.742 14.5469C17.3199 14.5469 16.946 14.6293 16.6204 14.794C16.2948 14.947 16.0234 15.1706 15.8064 15.4647V21.8364H13.328Z" fill="black"/>
</svg>
