<svg width="43" height="42" viewBox="0 0 43 42" fill="none" xmlns="http://www.w3.org/2000/svg">
<circle cx="24" cy="14.6895" r="11" transform="rotate(-180 24 14.6895)" fill="#F46B8B"/>
<circle cx="11" cy="30.6895" r="11" transform="rotate(-180 11 30.6895)" fill="#FFBECD"/>
<path d="M2.9751 33.9229L7.8971 38.9997L2.9751 33.9229Z" fill="white"/>
<path d="M2.9751 33.9229L7.8971 38.9997" stroke="black" stroke-miterlimit="10" stroke-linecap="round"/>
<path d="M3.37476 37.7139L4.35916 38.7292L3.37476 37.7139Z" fill="white"/>
<path d="M3.37476 37.7139L4.35916 38.7292" stroke="black" stroke-miterlimit="10" stroke-linecap="round"/>
<path d="M3.34155 30.7803L11.2165 38.9032L3.34155 30.7803Z" fill="white"/>
<path d="M3.34155 30.7803L11.2165 38.9032" stroke="black" stroke-miterlimit="10" stroke-linecap="round"/>
<path d="M6.01277 28.2842L29.5102 4.78678C31.7634 2.53359 35.4165 2.53359 37.6697 4.78678C39.9229 7.03997 39.9229 10.6931 37.6697 12.9463L14.1723 36.4437L6.01277 28.2842Z" stroke="black"/>
</svg>
