<svg width="757" height="273" viewBox="0 0 757 273" fill="none" xmlns="http://www.w3.org/2000/svg">
<path d="M1.64246 92V80.192H4.59446C6.41846 80.192 7.80446 80.696 8.75246 81.704C9.70046 82.712 10.1745 84.158 10.1745 86.042C10.1745 86.978 10.0545 87.818 9.81446 88.562C9.57446 89.294 9.22046 89.918 8.75246 90.434C8.28446 90.938 7.70846 91.328 7.02446 91.604C6.34046 91.868 5.55446 92 4.66646 92H1.64246ZM3.13646 90.776H4.48646C5.86646 90.776 6.89846 90.362 7.58246 89.534C8.27846 88.706 8.62646 87.542 8.62646 86.042C8.62646 84.542 8.27846 83.396 7.58246 82.604C6.89846 81.812 5.86646 81.416 4.48646 81.416H3.13646V90.776ZM12.7167 92V80.192H14.2107V92H12.7167ZM20.7212 92.216C19.8932 92.216 19.1252 92.06 18.4172 91.748C17.7092 91.436 17.0972 91.01 16.5812 90.47L17.4812 89.426C17.9012 89.87 18.3932 90.23 18.9572 90.506C19.5332 90.77 20.1272 90.902 20.7392 90.902C21.5192 90.902 22.1252 90.728 22.5572 90.38C22.9892 90.02 23.2052 89.552 23.2052 88.976C23.2052 88.676 23.1512 88.424 23.0432 88.22C22.9472 88.004 22.8092 87.824 22.6292 87.68C22.4612 87.524 22.2572 87.386 22.0172 87.266C21.7772 87.146 21.5192 87.02 21.2432 86.888L19.5512 86.15C19.2752 86.03 18.9932 85.886 18.7052 85.718C18.4172 85.55 18.1592 85.346 17.9312 85.106C17.7032 84.866 17.5172 84.584 17.3732 84.26C17.2292 83.924 17.1572 83.54 17.1572 83.108C17.1572 82.664 17.2472 82.25 17.4272 81.866C17.6192 81.482 17.8772 81.152 18.2012 80.876C18.5372 80.588 18.9272 80.366 19.3712 80.21C19.8272 80.054 20.3252 79.976 20.8652 79.976C21.5732 79.976 22.2272 80.114 22.8272 80.39C23.4272 80.654 23.9372 81.002 24.3572 81.434L23.5472 82.406C23.1872 82.058 22.7852 81.788 22.3412 81.596C21.9092 81.392 21.4172 81.29 20.8652 81.29C20.2052 81.29 19.6712 81.446 19.2632 81.758C18.8672 82.058 18.6692 82.478 18.6692 83.018C18.6692 83.306 18.7232 83.552 18.8312 83.756C18.9512 83.948 19.1072 84.122 19.2992 84.278C19.4912 84.422 19.7012 84.554 19.9292 84.674C20.1572 84.782 20.3912 84.884 20.6312 84.98L22.3052 85.7C22.6412 85.844 22.9592 86.012 23.2592 86.204C23.5592 86.384 23.8172 86.6 24.0332 86.852C24.2492 87.092 24.4172 87.38 24.5372 87.716C24.6692 88.04 24.7352 88.418 24.7352 88.85C24.7352 89.318 24.6392 89.756 24.4472 90.164C24.2672 90.572 24.0032 90.932 23.6552 91.244C23.3072 91.544 22.8872 91.784 22.3952 91.964C21.9032 92.132 21.3452 92.216 20.7212 92.216ZM31.5244 92.216C30.7804 92.216 30.0964 92.078 29.4724 91.802C28.8484 91.526 28.3024 91.13 27.8344 90.614C27.3784 90.086 27.0184 89.444 26.7544 88.688C26.5024 87.92 26.3764 87.056 26.3764 86.096C26.3764 85.148 26.5084 84.296 26.7724 83.54C27.0364 82.784 27.4024 82.142 27.8704 81.614C28.3384 81.086 28.8904 80.684 29.5264 80.408C30.1624 80.12 30.8584 79.976 31.6144 79.976C32.3344 79.976 32.9644 80.126 33.5044 80.426C34.0564 80.714 34.5064 81.05 34.8544 81.434L34.0444 82.406C33.7324 82.07 33.3784 81.8 32.9824 81.596C32.5864 81.392 32.1364 81.29 31.6324 81.29C31.0684 81.29 30.5584 81.404 30.1024 81.632C29.6464 81.848 29.2564 82.166 28.9324 82.586C28.6084 82.994 28.3564 83.492 28.1764 84.08C28.0084 84.668 27.9244 85.328 27.9244 86.06C27.9244 86.804 28.0084 87.476 28.1764 88.076C28.3564 88.664 28.6024 89.168 28.9144 89.588C29.2264 90.008 29.6044 90.332 30.0484 90.56C30.5044 90.788 31.0144 90.902 31.5784 90.902C32.1544 90.902 32.6584 90.788 33.0904 90.56C33.5224 90.32 33.9304 89.99 34.3144 89.57L35.1424 90.506C34.6744 91.046 34.1464 91.466 33.5584 91.766C32.9704 92.066 32.2924 92.216 31.5244 92.216ZM41.1723 92.216C40.4283 92.216 39.7443 92.072 39.1203 91.784C38.5083 91.496 37.9803 91.088 37.5363 90.56C37.0923 90.02 36.7443 89.372 36.4923 88.616C36.2523 87.848 36.1323 86.99 36.1323 86.042C36.1323 85.094 36.2523 84.248 36.4923 83.504C36.7443 82.748 37.0923 82.112 37.5363 81.596C37.9803 81.068 38.5083 80.666 39.1203 80.39C39.7443 80.114 40.4283 79.976 41.1723 79.976C41.9163 79.976 42.5943 80.12 43.2063 80.408C43.8303 80.684 44.3643 81.086 44.8083 81.614C45.2643 82.13 45.6123 82.766 45.8523 83.522C46.1043 84.266 46.2303 85.106 46.2303 86.042C46.2303 86.99 46.1043 87.848 45.8523 88.616C45.6123 89.372 45.2643 90.02 44.8083 90.56C44.3643 91.088 43.8303 91.496 43.2063 91.784C42.5943 92.072 41.9163 92.216 41.1723 92.216ZM41.1723 90.902C41.7003 90.902 42.1743 90.788 42.5943 90.56C43.0263 90.332 43.3923 90.008 43.6923 89.588C44.0043 89.156 44.2443 88.646 44.4123 88.058C44.5803 87.458 44.6643 86.786 44.6643 86.042C44.6643 85.31 44.5803 84.65 44.4123 84.062C44.2443 83.474 44.0043 82.976 43.6923 82.568C43.3923 82.16 43.0263 81.848 42.5943 81.632C42.1743 81.404 41.7003 81.29 41.1723 81.29C40.6443 81.29 40.1643 81.404 39.7323 81.632C39.3123 81.848 38.9463 82.16 38.6343 82.568C38.3343 82.976 38.1003 83.474 37.9323 84.062C37.7643 84.65 37.6803 85.31 37.6803 86.042C37.6803 86.786 37.7643 87.458 37.9323 88.058C38.1003 88.646 38.3343 89.156 38.6343 89.588C38.9463 90.008 39.3123 90.332 39.7323 90.56C40.1643 90.788 40.6443 90.902 41.1723 90.902ZM50.7536 92L46.9736 80.192H48.5756L50.4656 86.564C50.6816 87.272 50.8676 87.926 51.0236 88.526C51.1916 89.126 51.3896 89.774 51.6176 90.47H51.6896C51.9056 89.774 52.0976 89.126 52.2656 88.526C52.4336 87.926 52.6196 87.272 52.8236 86.564L54.7136 80.192H56.2436L52.4996 92H50.7536ZM57.8573 92V80.192H64.6613V81.452H59.3513V85.16H63.8333V86.438H59.3513V90.722H64.8413V92H57.8573ZM67.3495 92V80.192H71.0395C71.6395 80.192 72.1915 80.252 72.6955 80.372C73.2115 80.48 73.6495 80.666 74.0095 80.93C74.3815 81.194 74.6695 81.536 74.8735 81.956C75.0775 82.376 75.1795 82.892 75.1795 83.504C75.1795 84.428 74.9395 85.166 74.4595 85.718C73.9795 86.27 73.3315 86.648 72.5155 86.852L75.5215 92H73.8295L70.9855 87.014H68.8435V92H67.3495ZM68.8435 85.79H70.8235C71.7475 85.79 72.4555 85.604 72.9475 85.232C73.4395 84.848 73.6855 84.272 73.6855 83.504C73.6855 82.724 73.4395 82.178 72.9475 81.866C72.4555 81.554 71.7475 81.398 70.8235 81.398H68.8435V85.79Z" fill="#454545"/>
<circle cx="27" cy="12" r="11" fill="#F46B8B"/>
<circle cx="39" cy="17" r="11" fill="#FFBECD"/>
<path d="M33.8333 1C30.7018 1 27.6406 1.92863 25.0368 3.66845C22.433 5.40827 20.4036 7.88114 19.2052 10.7744C18.0069 13.6676 17.6933 16.8512 18.3042 19.9226C18.9152 22.994 20.4232 25.8153 22.6375 28.0297C24.8518 30.2441 27.673 31.7521 30.7444 32.363C33.8158 32.974 36.9993 32.6604 39.8925 31.462C42.7856 30.2636 45.2585 28.2341 46.9983 25.6303C48.7381 23.0265 49.6667 19.9652 49.6667 16.8336C49.6667 14.7543 49.2571 12.6954 48.4614 10.7744C47.6657 8.85334 46.4995 7.10785 45.0292 5.63756C43.5589 4.16727 41.8135 3.00098 39.8925 2.20526C37.9715 1.40955 35.9126 1 33.8333 1V1Z" stroke="black" stroke-miterlimit="10"/>
<path d="M45 28L58.0002 41.0009L45 28Z" fill="white"/>
<path d="M45 28L58.0002 41.0009" stroke="black" stroke-miterlimit="10" stroke-linecap="round"/>
<path d="M181.952 92V80.192H184.904C186.728 80.192 188.114 80.696 189.062 81.704C190.01 82.712 190.484 84.158 190.484 86.042C190.484 86.978 190.364 87.818 190.124 88.562C189.884 89.294 189.53 89.918 189.062 90.434C188.594 90.938 188.018 91.328 187.334 91.604C186.65 91.868 185.864 92 184.976 92H181.952ZM183.446 90.776H184.796C186.176 90.776 187.208 90.362 187.892 89.534C188.588 88.706 188.936 87.542 188.936 86.042C188.936 84.542 188.588 83.396 187.892 82.604C187.208 81.812 186.176 81.416 184.796 81.416H183.446V90.776ZM193.026 92V80.192H199.83V81.452H194.52V85.16H199.002V86.438H194.52V90.722H200.01V92H193.026ZM202.518 92V80.192H209.322V81.452H204.012V85.448H208.512V86.708H204.012V92H202.518ZM211.413 92V80.192H212.907V92H211.413ZM216.141 92V80.192H217.689L221.955 87.608L223.233 90.056H223.305C223.269 89.456 223.227 88.838 223.179 88.202C223.143 87.554 223.125 86.918 223.125 86.294V80.192H224.547V92H222.999L218.715 84.566L217.437 82.136H217.365C217.413 82.736 217.455 83.348 217.491 83.972C217.539 84.584 217.563 85.202 217.563 85.826V92H216.141ZM227.796 92V80.192H234.6V81.452H229.29V85.16H233.772V86.438H229.29V90.722H234.78V92H227.796Z" fill="#454545"/>
<circle r="11" transform="matrix(-1 0 0 1 215 12)" fill="#F46B8B"/>
<circle r="11" transform="matrix(-1 0 0 1 210 19)" fill="#FFBECD"/>
<path d="M208 1C204.044 1 200.178 2.17298 196.889 4.37061C193.6 6.56823 191.036 9.69181 189.522 13.3463C188.009 17.0009 187.613 21.0222 188.384 24.9018C189.156 28.7814 191.061 32.3451 193.858 35.1421C196.655 37.9392 200.219 39.844 204.098 40.6157C207.978 41.3874 211.999 40.9913 215.654 39.4776C219.308 37.9638 222.432 35.4004 224.629 32.1114C226.827 28.8224 228 24.9556 228 21C228 18.3736 227.483 15.7728 226.478 13.3463C225.472 10.9198 223.999 8.71504 222.142 6.85787C220.285 5.00069 218.08 3.5275 215.654 2.52241C213.227 1.51731 210.626 1 208 1V1Z" stroke="black" stroke-miterlimit="10"/>
<path d="M199.653 21.1582L216.665 21.1587L199.653 21.1582Z" fill="white"/>
<path d="M199.653 21.1582L216.665 21.1587" stroke="black" stroke-miterlimit="10" stroke-linecap="round"/>
<path d="M207.875 12.3682L207.874 29.3797L207.875 12.3682Z" fill="white"/>
<path d="M207.875 12.3682L207.874 29.3797" stroke="black" stroke-miterlimit="10" stroke-linecap="round"/>
<path d="M180.123 245V233.192H183.075C184.899 233.192 186.285 233.696 187.233 234.704C188.181 235.712 188.655 237.158 188.655 239.042C188.655 239.978 188.535 240.818 188.295 241.562C188.055 242.294 187.701 242.918 187.233 243.434C186.765 243.938 186.189 244.328 185.505 244.604C184.821 244.868 184.035 245 183.147 245H180.123ZM181.617 243.776H182.967C184.347 243.776 185.379 243.362 186.063 242.534C186.759 241.706 187.107 240.542 187.107 239.042C187.107 237.542 186.759 236.396 186.063 235.604C185.379 234.812 184.347 234.416 182.967 234.416H181.617V243.776ZM191.197 245V233.192H198.001V234.452H192.691V238.16H197.173V239.438H192.691V243.722H198.181V245H191.197ZM200.689 245V233.192H207.493V234.452H202.183V238.16H206.665V239.438H202.183V243.722H207.673V245H200.689ZM210.182 245V233.192H213.548C214.208 233.192 214.808 233.252 215.348 233.372C215.9 233.492 216.368 233.69 216.752 233.966C217.136 234.23 217.436 234.584 217.652 235.028C217.868 235.472 217.976 236.018 217.976 236.666C217.976 237.29 217.868 237.83 217.652 238.286C217.448 238.742 217.154 239.12 216.77 239.42C216.386 239.72 215.924 239.948 215.384 240.104C214.856 240.248 214.268 240.32 213.62 240.32H211.676V245H210.182ZM211.676 239.096H213.44C214.472 239.096 215.234 238.904 215.726 238.52C216.23 238.124 216.482 237.506 216.482 236.666C216.482 235.814 216.218 235.226 215.69 234.902C215.174 234.566 214.4 234.398 213.368 234.398H211.676V239.096ZM220.377 245V233.192H227.181V234.452H221.871V238.16H226.353V239.438H221.871V243.722H227.361V245H220.377ZM229.869 245V233.192H233.559C234.159 233.192 234.711 233.252 235.215 233.372C235.731 233.48 236.169 233.666 236.529 233.93C236.901 234.194 237.189 234.536 237.393 234.956C237.597 235.376 237.699 235.892 237.699 236.504C237.699 237.428 237.459 238.166 236.979 238.718C236.499 239.27 235.851 239.648 235.035 239.852L238.041 245H236.349L233.505 240.014H231.363V245H229.869ZM231.363 238.79H233.343C234.267 238.79 234.975 238.604 235.467 238.232C235.959 237.848 236.205 237.272 236.205 236.504C236.205 235.724 235.959 235.178 235.467 234.866C234.975 234.554 234.267 234.398 233.343 234.398H231.363V238.79ZM167.862 268V256.192H170.814C172.638 256.192 174.024 256.696 174.972 257.704C175.92 258.712 176.394 260.158 176.394 262.042C176.394 262.978 176.274 263.818 176.034 264.562C175.794 265.294 175.44 265.918 174.972 266.434C174.504 266.938 173.928 267.328 173.244 267.604C172.56 267.868 171.774 268 170.886 268H167.862ZM169.356 266.776H170.706C172.086 266.776 173.118 266.362 173.802 265.534C174.498 264.706 174.846 263.542 174.846 262.042C174.846 260.542 174.498 259.396 173.802 258.604C173.118 257.812 172.086 257.416 170.706 257.416H169.356V266.776ZM178.936 268V256.192H180.43V268H178.936ZM186.941 268.216C186.113 268.216 185.345 268.06 184.637 267.748C183.929 267.436 183.317 267.01 182.801 266.47L183.701 265.426C184.121 265.87 184.613 266.23 185.177 266.506C185.753 266.77 186.347 266.902 186.959 266.902C187.739 266.902 188.345 266.728 188.777 266.38C189.209 266.02 189.425 265.552 189.425 264.976C189.425 264.676 189.371 264.424 189.263 264.22C189.167 264.004 189.029 263.824 188.849 263.68C188.681 263.524 188.477 263.386 188.237 263.266C187.997 263.146 187.739 263.02 187.463 262.888L185.771 262.15C185.495 262.03 185.213 261.886 184.925 261.718C184.637 261.55 184.379 261.346 184.151 261.106C183.923 260.866 183.737 260.584 183.593 260.26C183.449 259.924 183.377 259.54 183.377 259.108C183.377 258.664 183.467 258.25 183.647 257.866C183.839 257.482 184.097 257.152 184.421 256.876C184.757 256.588 185.147 256.366 185.591 256.21C186.047 256.054 186.545 255.976 187.085 255.976C187.793 255.976 188.447 256.114 189.047 256.39C189.647 256.654 190.157 257.002 190.577 257.434L189.767 258.406C189.407 258.058 189.005 257.788 188.561 257.596C188.129 257.392 187.637 257.29 187.085 257.29C186.425 257.29 185.891 257.446 185.483 257.758C185.087 258.058 184.889 258.478 184.889 259.018C184.889 259.306 184.943 259.552 185.051 259.756C185.171 259.948 185.327 260.122 185.519 260.278C185.711 260.422 185.921 260.554 186.149 260.674C186.377 260.782 186.611 260.884 186.851 260.98L188.525 261.7C188.861 261.844 189.179 262.012 189.479 262.204C189.779 262.384 190.037 262.6 190.253 262.852C190.469 263.092 190.637 263.38 190.757 263.716C190.889 264.04 190.955 264.418 190.955 264.85C190.955 265.318 190.859 265.756 190.667 266.164C190.487 266.572 190.223 266.932 189.875 267.244C189.527 267.544 189.107 267.784 188.615 267.964C188.123 268.132 187.565 268.216 186.941 268.216ZM197.744 268.216C197 268.216 196.316 268.078 195.692 267.802C195.068 267.526 194.522 267.13 194.054 266.614C193.598 266.086 193.238 265.444 192.974 264.688C192.722 263.92 192.596 263.056 192.596 262.096C192.596 261.148 192.728 260.296 192.992 259.54C193.256 258.784 193.622 258.142 194.09 257.614C194.558 257.086 195.11 256.684 195.746 256.408C196.382 256.12 197.078 255.976 197.834 255.976C198.554 255.976 199.184 256.126 199.724 256.426C200.276 256.714 200.726 257.05 201.074 257.434L200.264 258.406C199.952 258.07 199.598 257.8 199.202 257.596C198.806 257.392 198.356 257.29 197.852 257.29C197.288 257.29 196.778 257.404 196.322 257.632C195.866 257.848 195.476 258.166 195.152 258.586C194.828 258.994 194.576 259.492 194.396 260.08C194.228 260.668 194.144 261.328 194.144 262.06C194.144 262.804 194.228 263.476 194.396 264.076C194.576 264.664 194.822 265.168 195.134 265.588C195.446 266.008 195.824 266.332 196.268 266.56C196.724 266.788 197.234 266.902 197.798 266.902C198.374 266.902 198.878 266.788 199.31 266.56C199.742 266.32 200.15 265.99 200.534 265.57L201.362 266.506C200.894 267.046 200.366 267.466 199.778 267.766C199.19 268.066 198.512 268.216 197.744 268.216ZM207.392 268.216C206.648 268.216 205.964 268.072 205.34 267.784C204.728 267.496 204.2 267.088 203.756 266.56C203.312 266.02 202.964 265.372 202.712 264.616C202.472 263.848 202.352 262.99 202.352 262.042C202.352 261.094 202.472 260.248 202.712 259.504C202.964 258.748 203.312 258.112 203.756 257.596C204.2 257.068 204.728 256.666 205.34 256.39C205.964 256.114 206.648 255.976 207.392 255.976C208.136 255.976 208.814 256.12 209.426 256.408C210.05 256.684 210.584 257.086 211.028 257.614C211.484 258.13 211.832 258.766 212.072 259.522C212.324 260.266 212.45 261.106 212.45 262.042C212.45 262.99 212.324 263.848 212.072 264.616C211.832 265.372 211.484 266.02 211.028 266.56C210.584 267.088 210.05 267.496 209.426 267.784C208.814 268.072 208.136 268.216 207.392 268.216ZM207.392 266.902C207.92 266.902 208.394 266.788 208.814 266.56C209.246 266.332 209.612 266.008 209.912 265.588C210.224 265.156 210.464 264.646 210.632 264.058C210.8 263.458 210.884 262.786 210.884 262.042C210.884 261.31 210.8 260.65 210.632 260.062C210.464 259.474 210.224 258.976 209.912 258.568C209.612 258.16 209.246 257.848 208.814 257.632C208.394 257.404 207.92 257.29 207.392 257.29C206.864 257.29 206.384 257.404 205.952 257.632C205.532 257.848 205.166 258.16 204.854 258.568C204.554 258.976 204.32 259.474 204.152 260.062C203.984 260.65 203.9 261.31 203.9 262.042C203.9 262.786 203.984 263.458 204.152 264.058C204.32 264.646 204.554 265.156 204.854 265.588C205.166 266.008 205.532 266.332 205.952 266.56C206.384 266.788 206.864 266.902 207.392 266.902ZM216.973 268L213.193 256.192H214.795L216.685 262.564C216.901 263.272 217.087 263.926 217.243 264.526C217.411 265.126 217.609 265.774 217.837 266.47H217.909C218.125 265.774 218.317 265.126 218.485 264.526C218.653 263.926 218.839 263.272 219.043 262.564L220.933 256.192H222.463L218.719 268H216.973ZM224.077 268V256.192H230.881V257.452H225.571V261.16H230.053V262.438H225.571V266.722H231.061V268H224.077ZM233.569 268V256.192H237.259C237.859 256.192 238.411 256.252 238.915 256.372C239.431 256.48 239.869 256.666 240.229 256.93C240.601 257.194 240.889 257.536 241.093 257.956C241.297 258.376 241.399 258.892 241.399 259.504C241.399 260.428 241.159 261.166 240.679 261.718C240.199 262.27 239.551 262.648 238.735 262.852L241.741 268H240.049L237.205 263.014H235.063V268H233.569ZM235.063 261.79H237.043C237.967 261.79 238.675 261.604 239.167 261.232C239.659 260.848 239.905 260.272 239.905 259.504C239.905 258.724 239.659 258.178 239.167 257.866C238.675 257.554 237.967 257.398 237.043 257.398H235.063V261.79ZM245.725 268V263.428L242.179 256.192H243.781L245.311 259.522C245.503 259.954 245.689 260.38 245.869 260.8C246.049 261.22 246.241 261.652 246.445 262.096H246.517C246.721 261.652 246.925 261.22 247.129 260.8C247.333 260.38 247.525 259.954 247.705 259.522L249.217 256.192H250.783L247.237 263.428V268H245.725Z" fill="#454545"/>
<path d="M204 166.999C204 173.074 199.075 177.999 193 177.999C186.925 177.999 182 173.074 182 166.999C182 160.924 186.925 155.999 193 155.999C199.075 155.999 204 160.924 204 166.999Z" fill="#F46B8B"/>
<path d="M220.5 171.959C220.5 178.034 215.575 182.959 209.5 182.959C203.425 182.959 198.5 178.034 198.5 171.959C198.5 165.884 203.425 160.959 209.5 160.959C215.575 160.959 220.5 165.884 220.5 171.959Z" fill="#FFBECD"/>
<path d="M203.833 154C200.702 154 197.641 154.929 195.037 156.668C192.433 158.408 190.404 160.881 189.205 163.774C188.007 166.668 187.693 169.851 188.304 172.923C188.915 175.994 190.423 178.815 192.637 181.03C194.852 183.244 197.673 184.752 200.744 185.363C203.816 185.974 206.999 185.66 209.892 184.462C212.786 183.264 215.258 181.234 216.998 178.63C218.738 176.026 219.667 172.965 219.667 169.834C219.667 167.754 219.257 165.695 218.461 163.774C217.666 161.853 216.499 160.108 215.029 158.638C213.559 157.167 211.813 156.001 209.892 155.205C207.971 154.41 205.913 154 203.833 154V154Z" stroke="black" stroke-miterlimit="10"/>
<path d="M215 181L228 194.001L215 181Z" fill="white"/>
<path d="M215 181L228 194.001" stroke="black" stroke-miterlimit="10" stroke-linecap="round"/>
<path d="M350.998 247.311V235.503H352.492V247.311H350.998ZM355.726 247.311V235.503H358.678C360.502 235.503 361.888 236.007 362.836 237.015C363.784 238.023 364.258 239.469 364.258 241.353C364.258 242.289 364.138 243.129 363.898 243.873C363.658 244.605 363.304 245.229 362.836 245.745C362.368 246.249 361.792 246.639 361.108 246.915C360.424 247.179 359.638 247.311 358.75 247.311H355.726ZM357.22 246.087H358.57C359.95 246.087 360.982 245.673 361.666 244.845C362.362 244.017 362.71 242.853 362.71 241.353C362.71 239.853 362.362 238.707 361.666 237.915C360.982 237.123 359.95 236.727 358.57 236.727H357.22V246.087ZM366.801 247.311V235.503H373.605V236.763H368.295V240.471H372.777V241.749H368.295V246.033H373.785V247.311H366.801ZM378.327 240.705L377.769 242.505H381.315L380.757 240.705C380.541 240.045 380.337 239.391 380.145 238.743C379.953 238.083 379.761 237.411 379.569 236.727H379.497C379.317 237.411 379.131 238.083 378.939 238.743C378.747 239.391 378.543 240.045 378.327 240.705ZM374.727 247.311L378.723 235.503H380.415L384.411 247.311H382.809L381.693 243.711H377.391L376.257 247.311H374.727ZM387.547 247.311V236.763H383.983V235.503H392.623V236.763H389.059V247.311H387.547ZM394.75 247.311V235.503H401.554V236.763H396.244V240.471H400.726V241.749H396.244V246.033H401.734V247.311H394.75Z" fill="#454545"/>
<circle r="11" transform="matrix(-1 0 0 1 381 175)" fill="#F46B8B"/>
<circle r="11" transform="matrix(-1 0 0 1 372 165)" fill="#FFBECD"/>
<path d="M375.5 156C372.434 156 369.438 156.909 366.889 158.612C364.34 160.315 362.353 162.736 361.18 165.568C360.007 168.401 359.7 171.517 360.298 174.524C360.896 177.531 362.372 180.292 364.54 182.46C366.708 184.628 369.469 186.104 372.476 186.702C375.483 187.3 378.599 186.993 381.432 185.82C384.264 184.647 386.685 182.66 388.388 180.111C390.091 177.562 391 174.566 391 171.5C391 169.465 390.599 167.449 389.82 165.568C389.041 163.688 387.899 161.979 386.46 160.54C385.021 159.101 383.312 157.959 381.432 157.18C379.551 156.401 377.535 156 375.5 156V156Z" stroke="black" stroke-miterlimit="10"/>
<path d="M372 193.07H379.071H372Z" fill="white"/>
<path d="M372 193.07L379.071 193.07" stroke="black" stroke-miterlimit="10" stroke-linecap="round"/>
<path d="M375 195.422L376.414 195.422L375 195.422Z" fill="white"/>
<path d="M375 195.422L376.414 195.422" stroke="black" stroke-miterlimit="10" stroke-linecap="round"/>
<path d="M370 190.621L381.314 190.621L370 190.621Z" fill="white"/>
<path d="M370 190.621L381.314 190.621" stroke="black" stroke-miterlimit="10" stroke-linecap="round"/>
<path d="M523.098 247.905C522.354 247.905 521.67 247.767 521.046 247.491C520.422 247.215 519.876 246.819 519.408 246.303C518.952 245.775 518.592 245.133 518.328 244.377C518.076 243.609 517.95 242.745 517.95 241.785C517.95 240.837 518.082 239.985 518.346 239.229C518.61 238.473 518.976 237.831 519.444 237.303C519.912 236.775 520.464 236.373 521.1 236.097C521.736 235.809 522.432 235.665 523.188 235.665C523.908 235.665 524.538 235.815 525.078 236.115C525.63 236.403 526.08 236.739 526.428 237.123L525.618 238.095C525.306 237.759 524.952 237.489 524.556 237.285C524.16 237.081 523.71 236.979 523.206 236.979C522.642 236.979 522.132 237.093 521.676 237.321C521.22 237.537 520.83 237.855 520.506 238.275C520.182 238.683 519.93 239.181 519.75 239.769C519.582 240.357 519.498 241.017 519.498 241.749C519.498 242.493 519.582 243.165 519.75 243.765C519.93 244.353 520.176 244.857 520.488 245.277C520.8 245.697 521.178 246.021 521.622 246.249C522.078 246.477 522.588 246.591 523.152 246.591C523.728 246.591 524.232 246.477 524.664 246.249C525.096 246.009 525.504 245.679 525.888 245.259L526.716 246.195C526.248 246.735 525.72 247.155 525.132 247.455C524.544 247.755 523.866 247.905 523.098 247.905ZM528.917 247.689V235.881H532.607C533.207 235.881 533.759 235.941 534.263 236.061C534.779 236.169 535.217 236.355 535.577 236.619C535.949 236.883 536.237 237.225 536.441 237.645C536.645 238.065 536.747 238.581 536.747 239.193C536.747 240.117 536.507 240.855 536.027 241.407C535.547 241.959 534.899 242.337 534.083 242.541L537.089 247.689H535.397L532.553 242.703H530.411V247.689H528.917ZM530.411 241.479H532.391C533.315 241.479 534.023 241.293 534.515 240.921C535.007 240.537 535.253 239.961 535.253 239.193C535.253 238.413 535.007 237.867 534.515 237.555C534.023 237.243 533.315 237.087 532.391 237.087H530.411V241.479ZM539.165 247.689V235.881H545.969V237.141H540.659V240.849H545.141V242.127H540.659V246.411H546.149V247.689H539.165ZM550.691 241.083L550.133 242.883H553.679L553.121 241.083C552.905 240.423 552.701 239.769 552.509 239.121C552.317 238.461 552.125 237.789 551.933 237.105H551.861C551.681 237.789 551.495 238.461 551.303 239.121C551.111 239.769 550.907 240.423 550.691 241.083ZM547.091 247.689L551.087 235.881H552.779L556.775 247.689H555.173L554.057 244.089H549.755L548.621 247.689H547.091ZM559.912 247.689V237.141H556.348V235.881H564.988V237.141H561.424V247.689H559.912ZM567.114 247.689V235.881H573.918V237.141H568.608V240.849H573.09V242.127H568.608V246.411H574.098V247.689H567.114Z" fill="#454545"/>
<circle cx="548" cy="168.689" r="11" transform="rotate(-180 548 168.689)" fill="#F46B8B"/>
<circle cx="535" cy="184.689" r="11" transform="rotate(-180 535 184.689)" fill="#FFBECD"/>
<path d="M526.975 187.923L531.897 193L526.975 187.923Z" fill="white"/>
<path d="M526.975 187.923L531.897 193" stroke="black" stroke-miterlimit="10" stroke-linecap="round"/>
<path d="M527.375 191.714L528.359 192.729L527.375 191.714Z" fill="white"/>
<path d="M527.375 191.714L528.359 192.729" stroke="black" stroke-miterlimit="10" stroke-linecap="round"/>
<path d="M527.342 184.78L535.217 192.903L527.342 184.78Z" fill="white"/>
<path d="M527.342 184.78L535.217 192.903" stroke="black" stroke-miterlimit="10" stroke-linecap="round"/>
<path d="M530.013 182.284L553.51 158.787C555.763 156.534 559.417 156.534 561.67 158.787C563.923 161.04 563.923 164.693 561.67 166.946L538.172 190.444L530.013 182.284Z" stroke="black"/>
<path d="M682.722 245V233.192H689.526V234.452H684.216V238.16H688.698V239.438H684.216V243.722H689.706V245H682.722ZM694.374 245L690.594 233.192H692.196L694.086 239.564C694.302 240.272 694.488 240.926 694.644 241.526C694.812 242.126 695.01 242.774 695.238 243.47H695.31C695.526 242.774 695.718 242.126 695.886 241.526C696.054 240.926 696.24 240.272 696.444 239.564L698.334 233.192H699.864L696.12 245H694.374ZM703.265 238.394L702.707 240.194H706.253L705.695 238.394C705.479 237.734 705.275 237.08 705.083 236.432C704.891 235.772 704.699 235.1 704.507 234.416H704.435C704.255 235.1 704.069 235.772 703.877 236.432C703.685 237.08 703.481 237.734 703.265 238.394ZM699.665 245L703.661 233.192H705.353L709.349 245H707.747L706.631 241.4H702.329L701.195 245H699.665ZM711.022 245V233.192H712.516V243.722H717.682V245H711.022ZM723.443 245.216C722.843 245.216 722.279 245.132 721.751 244.964C721.235 244.784 720.785 244.496 720.401 244.1C720.029 243.692 719.735 243.164 719.519 242.516C719.303 241.868 719.195 241.07 719.195 240.122V233.192H720.689V240.158C720.689 240.866 720.761 241.46 720.905 241.94C721.049 242.42 721.241 242.804 721.481 243.092C721.733 243.38 722.027 243.59 722.363 243.722C722.699 243.842 723.059 243.902 723.443 243.902C723.839 243.902 724.205 243.842 724.541 243.722C724.877 243.59 725.171 243.38 725.423 243.092C725.675 242.804 725.873 242.42 726.017 241.94C726.161 241.46 726.233 240.866 726.233 240.158V233.192H727.673V240.122C727.673 241.07 727.565 241.868 727.349 242.516C727.133 243.164 726.833 243.692 726.449 244.1C726.077 244.496 725.633 244.784 725.117 244.964C724.601 245.132 724.043 245.216 723.443 245.216ZM732.603 238.394L732.045 240.194H735.591L735.033 238.394C734.817 237.734 734.613 237.08 734.421 236.432C734.229 235.772 734.037 235.1 733.845 234.416H733.773C733.593 235.1 733.407 235.772 733.215 236.432C733.023 237.08 732.819 237.734 732.603 238.394ZM729.003 245L732.999 233.192H734.691L738.687 245H737.085L735.969 241.4H731.667L730.533 245H729.003ZM741.824 245V234.452H738.26V233.192H746.9V234.452H743.336V245H741.824ZM749.026 245V233.192H755.83V234.452H750.52V238.16H755.002V239.438H750.52V243.722H756.01V245H749.026Z" fill="#454545"/>
<circle cx="731" cy="178" r="11" transform="rotate(-180 731 178)" fill="#F46B8B"/>
<circle cx="715" cy="174" r="11" transform="rotate(-180 715 174)" fill="#FFBECD"/>
<path d="M719 154C715.044 154 711.178 155.173 707.889 157.371C704.6 159.568 702.036 162.692 700.522 166.346C699.009 170.001 698.613 174.022 699.384 177.902C700.156 181.781 702.061 185.345 704.858 188.142C707.655 190.939 711.219 192.844 715.098 193.616C718.978 194.387 722.999 193.991 726.654 192.478C730.308 190.964 733.432 188.4 735.629 185.111C737.827 181.822 739 177.956 739 174C739 171.374 738.483 168.773 737.478 166.346C736.472 163.92 734.999 161.715 733.142 159.858C731.285 158.001 729.08 156.528 726.654 155.522C724.227 154.517 721.626 154 719 154V154Z" stroke="black" stroke-miterlimit="10"/>
<path d="M728 165L716.1 182L711 175.625" stroke="black" stroke-linecap="round" stroke-linejoin="round"/>
<line x1="603" y1="175.5" x2="653" y2="175.5" stroke="#F46B8B"/>
<line x1="98" y1="22.5" x2="148" y2="22.5" stroke="#F46B8B"/>
<line x1="269" y1="175.5" x2="319" y2="175.5" stroke="#F46B8B"/>
<line x1="443" y1="175.5" x2="493" y2="175.5" stroke="#F46B8B"/>
<line x1="207.5" y1="134" x2="207.5" y2="109" stroke="#F46B8B"/>
</svg>
