<svg width="36" height="36" viewBox="0 0 36 36" fill="none" xmlns="http://www.w3.org/2000/svg">
<path d="M24.629 9.92622L24.7048 10.2484L25.0311 10.3044C29.3984 11.0536 31.4569 14.2443 31.4389 17.4526C31.4208 20.675 29.3086 23.937 25.1969 24.812L24.8206 24.8921L24.8016 25.2764C24.6147 29.0581 21.4347 31.1902 17.987 31.264C14.5587 31.3375 11.0465 29.3571 10.3043 25.0312L10.2445 24.6827L9.89607 24.6229C5.52497 23.873 3.4747 20.6813 3.5494 17.5451C3.62421 14.404 5.83233 11.2565 10.1893 10.6107L10.5562 10.5563L10.6106 10.1894C11.2569 5.8298 14.2849 3.74813 17.3569 3.72894C20.4444 3.70965 23.6508 5.77315 24.629 9.92622Z" stroke="#303030"/>
<path d="M16.9346 17.031C17.9186 16.995 18.7166 16.761 19.3286 16.329C19.9526 15.885 20.2646 15.261 20.2646 14.457V14.043C20.2646 13.323 20.0546 12.771 19.6346 12.387C19.2146 12.003 18.6626 11.811 17.9786 11.811C17.5346 11.811 17.1686 11.853 16.8806 11.937C16.5926 12.009 16.3466 12.105 16.1426 12.225V12.261C16.2746 12.309 16.4126 12.429 16.5566 12.621C16.7126 12.801 16.7906 13.023 16.7906 13.287C16.7906 13.599 16.6946 13.863 16.5026 14.079C16.3226 14.283 16.0646 14.385 15.7286 14.385C15.3926 14.385 15.1226 14.283 14.9186 14.079C14.7266 13.875 14.6306 13.581 14.6306 13.197C14.6306 12.897 14.7266 12.615 14.9186 12.351C15.1106 12.075 15.3686 11.835 15.6926 11.631C16.0166 11.415 16.3946 11.247 16.8266 11.127C17.2586 10.995 17.7146 10.929 18.1946 10.929C18.7346 10.929 19.2326 11.007 19.6886 11.163C20.1446 11.319 20.5346 11.541 20.8586 11.829C21.1826 12.117 21.4346 12.465 21.6146 12.873C21.7946 13.269 21.8846 13.713 21.8846 14.205C21.8846 14.745 21.7826 15.237 21.5786 15.681C21.3746 16.113 21.0926 16.485 20.7326 16.797C20.3726 17.109 19.9526 17.361 19.4726 17.553C18.9926 17.745 18.4766 17.865 17.9246 17.913V20.019H16.9346V17.031ZM17.4386 23.925C17.0906 23.925 16.8146 23.823 16.6106 23.619C16.4186 23.403 16.3226 23.145 16.3226 22.845V22.737C16.3226 22.437 16.4186 22.185 16.6106 21.981C16.8146 21.765 17.0906 21.657 17.4386 21.657C17.7866 21.657 18.0566 21.765 18.2486 21.981C18.4526 22.185 18.5546 22.437 18.5546 22.737V22.845C18.5546 23.145 18.4526 23.403 18.2486 23.619C18.0566 23.823 17.7866 23.925 17.4386 23.925Z" fill="#303030"/>
</svg>
