<svg width="42" height="42" viewBox="0 0 42 42" fill="none" xmlns="http://www.w3.org/2000/svg">
<circle r="11" transform="matrix(-1 0 0 1 28 12)" fill="#F46B8B"/>
<circle r="11" transform="matrix(-1 0 0 1 23 19)" fill="#FFBECD"/>
<path d="M21 1C17.0444 1 13.1776 2.17298 9.8886 4.37061C6.59962 6.56823 4.03617 9.69181 2.52242 13.3463C1.00867 17.0009 0.612599 21.0222 1.3843 24.9018C2.15601 28.7814 4.06083 32.3451 6.85788 35.1421C9.65492 37.9392 13.2186 39.844 17.0982 40.6157C20.9778 41.3874 24.9991 40.9913 28.6537 39.4776C32.3082 37.9638 35.4318 35.4004 37.6294 32.1114C39.827 28.8224 41 24.9556 41 21C41 18.3736 40.4827 15.7728 39.4776 13.3463C38.4725 10.9198 36.9993 8.71504 35.1421 6.85787C33.285 5.00069 31.0802 3.5275 28.6537 2.52241C26.2272 1.51731 23.6264 1 21 1V1Z" stroke="black" stroke-miterlimit="10"/>
<path d="M12.6528 21.1582L29.6647 21.1587L12.6528 21.1582Z" fill="white"/>
<path d="M12.6528 21.1582L29.6647 21.1587" stroke="black" stroke-miterlimit="10" stroke-linecap="round"/>
<path d="M20.8748 12.3682L20.8743 29.3797L20.8748 12.3682Z" fill="white"/>
<path d="M20.8748 12.3682L20.8743 29.3797" stroke="black" stroke-miterlimit="10" stroke-linecap="round"/>
</svg>
