<svg width="1095" height="710" viewBox="0 0 1095 710" fill="none" xmlns="http://www.w3.org/2000/svg">
<circle cx="37.8049" cy="96.8049" r="37.3049" fill="white" stroke="black"/>
<path d="M43.1502 103.112L45.0604 107.22C45.0604 107.22 53.6471 109.043 53.6471 113.38C53.6471 116.461 49.8268 116.461 49.8268 116.461H39.6527L34.6436 113.678" stroke="#141414" stroke-linecap="round" stroke-linejoin="round"/>
<path d="M31.703 103.112L29.7951 107.22C29.7951 107.22 21.2061 109.043 21.2061 113.38C21.2061 116.461 25.0264 116.461 25.0264 116.461H29.6348L34.6439 113.678L40.7662 109.782" stroke="#141414" stroke-linecap="round" stroke-linejoin="round"/>
<path d="M17.3901 105.165C17.3901 105.165 22.1611 104.139 25.0241 103.113C27.8849 88.7353 36.4694 89.7616 37.4267 89.7616C38.3818 89.7616 46.9686 88.7353 49.8294 103.113C52.6924 104.137 57.4633 105.165 57.4633 105.165" stroke="#141414" stroke-linecap="round" stroke-linejoin="round"/>
<path d="M37.4267 85.2938C38.6076 85.2938 39.7401 84.8247 40.5751 83.9897C41.4102 83.1547 41.8793 82.0221 41.8793 80.8412C41.8793 79.6604 41.4102 78.5278 40.5751 77.6928C39.7401 76.8578 38.6076 76.3887 37.4267 76.3887C36.2458 76.3887 35.1133 76.8578 34.2783 77.6928C33.4432 78.5278 32.9741 79.6604 32.9741 80.8412C32.9741 82.0221 33.4432 83.1547 34.2783 83.9897C35.1133 84.8247 36.2458 85.2938 37.4267 85.2938Z" stroke="#141414" stroke-linecap="round" stroke-linejoin="round"/>
<circle cx="234.805" cy="117.805" r="37.3049" fill="white" stroke="black"/>
<path d="M232.253 99.9409C225.873 99.9409 218.218 106.32 218.218 116.528C218.218 126.735 225.873 134.391 236.081 134.391C246.288 134.391 252.667 126.735 252.667 120.356C238.632 129.287 223.321 113.976 232.253 99.9409Z" stroke="#141414" stroke-linecap="round" stroke-linejoin="round"/>
<circle cx="119.805" cy="210.805" r="37.3049" fill="white" stroke="black"/>
<path d="M109.038 196.132C109.038 196.132 109.452 192.113 109.902 191.186C110.189 190.593 116.146 196.983 116.146 196.983M109.038 196.132C109.038 196.132 108.439 198.894 108.551 198.915C108.906 198.981 109.787 199.098 110.952 199.24M109.038 196.132L116.146 196.983M116.146 196.983L123.254 197.833C123.254 197.833 124.947 198.658 124.755 199.533C124.597 200.252 123.254 200.615 123.254 200.615C123.254 200.615 117.755 200.029 113.444 199.533M110.952 199.24L102.55 222.102M110.952 199.24C111.69 199.329 112.541 199.429 113.444 199.533M102.55 222.102H107.501L110.802 226.121M102.55 222.102C102.55 222.102 100.043 224.487 100.15 226.431C100.256 228.372 103 230.45 103 230.45H119.204L120.554 228.131M113.444 199.533L105.401 222.102M110.802 226.121H118.754L120.554 228.131M110.802 226.121C110.802 226.121 110.811 223.936 111.702 223.957C118.576 224.123 137.807 223.957 137.807 223.957C137.807 223.957 139.354 224.835 139.458 225.812C139.577 226.928 137.807 228.131 137.807 228.131H137.057M120.554 228.131H133.157M133.157 228.131C133.157 228.131 132.875 229.147 133.157 229.677C133.523 230.365 134.196 230.409 134.957 230.45C135.827 230.496 136.658 230.474 137.057 229.677C137.326 229.14 137.057 228.131 137.057 228.131M133.157 228.131H137.057" stroke="#141414" stroke-linecap="round"/>
<circle cx="870.805" cy="669.805" r="37.3049" fill="white" stroke="black"/>
<path d="M862.488 660.732C862.488 659.505 861.34 658.51 859.924 658.51C858.508 658.51 857.361 659.505 857.361 660.732V678.507C857.361 679.734 858.508 680.728 859.924 680.728C861.34 680.728 862.488 679.734 862.488 678.507V660.732ZM884.706 660.732C884.706 659.505 883.559 658.51 882.143 658.51C880.727 658.51 879.579 659.505 879.579 660.732V678.507C879.579 679.734 880.727 680.728 882.143 680.728C883.559 680.728 884.706 679.734 884.706 678.507V660.732ZM857.361 665.062C857.361 663.803 856.213 662.783 854.797 662.783C853.381 662.783 852.233 663.803 852.233 665.062V674.177C852.233 675.435 853.381 676.456 854.797 676.456C856.213 676.456 857.361 675.435 857.361 674.177V665.062ZM889.833 665.062C889.833 663.803 888.686 662.783 887.27 662.783C885.854 662.783 884.706 663.803 884.706 665.062V674.177C884.706 675.435 885.854 676.456 887.27 676.456C888.686 676.456 889.833 675.435 889.833 674.177V665.062ZM862.488 672.183H879.579V667.056H862.488V672.183Z" stroke="#141414" stroke-linejoin="round"/>
<circle cx="1022.8" cy="586.805" r="37.3049" fill="white" stroke="black"/>
<path d="M1034.11 589.924C1036.9 590.529 1045.49 594.916 1045.49 594.916C1045.49 594.916 1036.9 599.713 1034.11 600.107C1029.2 600.799 1022.46 599.871 1022.53 594.916C1022.6 589.992 1029.29 588.884 1034.11 589.924Z" fill="white" stroke="#141414" stroke-linecap="round"/>
<path d="M1010.75 589.924C1007.95 590.529 999.366 594.916 999.366 594.916C999.366 594.916 1007.95 599.713 1010.75 600.107C1015.65 600.799 1022.4 599.871 1022.33 594.916C1022.26 589.992 1015.56 588.884 1010.75 589.924Z" fill="white" stroke="#141414" stroke-linecap="round"/>
<path d="M1016.35 582.693C1013.95 581.144 1004.78 578.175 1004.78 578.175C1004.78 578.175 1007.46 587.638 1009.15 589.893C1012.13 593.853 1017.56 597.966 1021.01 594.411C1024.44 590.879 1020.49 585.361 1016.35 582.693Z" fill="white" stroke="#141414" stroke-linecap="round"/>
<path d="M1028.57 582.693C1030.98 581.144 1040.15 578.175 1040.15 578.175C1040.15 578.175 1037.47 587.638 1035.77 589.893C1032.79 593.853 1027.37 597.966 1023.91 594.411C1020.48 590.879 1024.43 585.361 1028.57 582.693Z" fill="white" stroke="#141414" stroke-linecap="round"/>
<path d="M1027.72 584.575C1027.12 581.78 1022.73 573.194 1022.73 573.194C1022.73 573.194 1017.93 581.78 1017.54 584.575C1016.85 589.482 1017.77 596.227 1022.73 596.155C1027.65 596.084 1028.76 589.388 1027.72 584.575Z" stroke="#141414" stroke-linecap="round"/>
<path d="M213 270C213.53 270 214.039 270.211 214.414 270.586C214.789 270.961 215 271.47 215 272V284H227C227.53 284 228.039 284.211 228.414 284.586C228.789 284.961 229 285.47 229 286C229 286.53 228.789 287.039 228.414 287.414C228.039 287.789 227.53 288 227 288H215V300C215 300.53 214.789 301.039 214.414 301.414C214.039 301.789 213.53 302 213 302C212.47 302 211.961 301.789 211.586 301.414C211.211 301.039 211 300.53 211 300V288H199C198.47 288 197.961 287.789 197.586 287.414C197.211 287.039 197 286.53 197 286C197 285.47 197.211 284.961 197.586 284.586C197.961 284.211 198.47 284 199 284H211V272C211 271.47 211.211 270.961 211.586 270.586C211.961 270.211 212.47 270 213 270V270Z" fill="#94FFEC"/>
<path d="M80 0C80.9283 0 81.8185 0.368749 82.4749 1.02513C83.1313 1.6815 83.5 2.57174 83.5 3.5V24.5H104.5C105.428 24.5 106.318 24.8687 106.975 25.5251C107.631 26.1815 108 27.0717 108 28C108 28.9283 107.631 29.8185 106.975 30.4749C106.318 31.1313 105.428 31.5 104.5 31.5H83.5V52.5C83.5 53.4283 83.1313 54.3185 82.4749 54.9749C81.8185 55.6312 80.9283 56 80 56C79.0717 56 78.1815 55.6312 77.5251 54.9749C76.8687 54.3185 76.5 53.4283 76.5 52.5V31.5H55.5C54.5717 31.5 53.6815 31.1313 53.0251 30.4749C52.3687 29.8185 52 28.9283 52 28C52 27.0717 52.3687 26.1815 53.0251 25.5251C53.6815 24.8687 54.5717 24.5 55.5 24.5H76.5V3.5C76.5 2.57174 76.8687 1.6815 77.5251 1.02513C78.1815 0.368749 79.0717 0 80 0V0Z" fill="#94FFEC"/>
<path d="M295 325C295.696 325 296.364 325.277 296.856 325.769C297.348 326.261 297.625 326.929 297.625 327.625V343.375H313.375C314.071 343.375 314.739 343.652 315.231 344.144C315.723 344.636 316 345.304 316 346C316 346.696 315.723 347.364 315.231 347.856C314.739 348.348 314.071 348.625 313.375 348.625H297.625V364.375C297.625 365.071 297.348 365.739 296.856 366.231C296.364 366.723 295.696 367 295 367C294.304 367 293.636 366.723 293.144 366.231C292.652 365.739 292.375 365.071 292.375 364.375V348.625H276.625C275.929 348.625 275.261 348.348 274.769 347.856C274.277 347.364 274 346.696 274 346C274 345.304 274.277 344.636 274.769 344.144C275.261 343.652 275.929 343.375 276.625 343.375H292.375V327.625C292.375 326.929 292.652 326.261 293.144 325.769C293.636 325.277 294.304 325 295 325V325Z" fill="#94FFEC"/>
<path d="M930 496C929.304 496 928.636 496.277 928.144 496.769C927.652 497.261 927.375 497.929 927.375 498.625V514.375H911.625C910.929 514.375 910.261 514.652 909.769 515.144C909.277 515.636 909 516.304 909 517C909 517.696 909.277 518.364 909.769 518.856C910.261 519.348 910.929 519.625 911.625 519.625H927.375V535.375C927.375 536.071 927.652 536.739 928.144 537.231C928.636 537.723 929.304 538 930 538C930.696 538 931.364 537.723 931.856 537.231C932.348 536.739 932.625 536.071 932.625 535.375V519.625H948.375C949.071 519.625 949.739 519.348 950.231 518.856C950.723 518.364 951 517.696 951 517C951 516.304 950.723 515.636 950.231 515.144C949.739 514.652 949.071 514.375 948.375 514.375H932.625V498.625C932.625 497.929 932.348 497.261 931.856 496.769C931.364 496.277 930.696 496 930 496V496Z" fill="#94FFEC"/>
<path d="M939 646C938.569 646 938.156 646.171 937.851 646.476C937.546 646.781 937.375 647.194 937.375 647.625V657.375H927.625C927.194 657.375 926.781 657.546 926.476 657.851C926.171 658.156 926 658.569 926 659C926 659.431 926.171 659.844 926.476 660.149C926.781 660.454 927.194 660.625 927.625 660.625H937.375V670.375C937.375 670.806 937.546 671.219 937.851 671.524C938.156 671.829 938.569 672 939 672C939.431 672 939.844 671.829 940.149 671.524C940.454 671.219 940.625 670.806 940.625 670.375V660.625H950.375C950.806 660.625 951.219 660.454 951.524 660.149C951.829 659.844 952 659.431 952 659C952 658.569 951.829 658.156 951.524 657.851C951.219 657.546 950.806 657.375 950.375 657.375H940.625V647.625C940.625 647.194 940.454 646.781 940.149 646.476C939.844 646.171 939.431 646 939 646V646Z" fill="#94FFEC"/>
<path d="M1082 527C1081.57 527 1081.16 527.171 1080.85 527.476C1080.55 527.781 1080.38 528.194 1080.38 528.625V538.375H1070.62C1070.19 538.375 1069.78 538.546 1069.48 538.851C1069.17 539.156 1069 539.569 1069 540C1069 540.431 1069.17 540.844 1069.48 541.149C1069.78 541.454 1070.19 541.625 1070.62 541.625H1080.38V551.375C1080.38 551.806 1080.55 552.219 1080.85 552.524C1081.16 552.829 1081.57 553 1082 553C1082.43 553 1082.84 552.829 1083.15 552.524C1083.45 552.219 1083.62 551.806 1083.62 551.375V541.625H1093.38C1093.81 541.625 1094.22 541.454 1094.52 541.149C1094.83 540.844 1095 540.431 1095 540C1095 539.569 1094.83 539.156 1094.52 538.851C1094.22 538.546 1093.81 538.375 1093.38 538.375H1083.62V528.625C1083.62 528.194 1083.45 527.781 1083.15 527.476C1082.84 527.171 1082.43 527 1082 527V527Z" fill="#94FFEC"/>
<path d="M126 89L142 74L158 89" stroke="#D094FF" stroke-width="4" stroke-linecap="round" stroke-linejoin="round"/>
<path d="M225 429L239 416L253 429" stroke="#D094FF" stroke-width="4" stroke-linecap="round" stroke-linejoin="round"/>
<path d="M1069 466L1055 453L1041 466" stroke="#D094FF" stroke-width="4" stroke-linecap="round" stroke-linejoin="round"/>
<path d="M823 708L809 695L795 708" stroke="#D094FF" stroke-width="4" stroke-linecap="round" stroke-linejoin="round"/>
<path d="M966 613L952 600L938 613" stroke="#D094FF" stroke-width="4" stroke-linecap="round" stroke-linejoin="round"/>
<path d="M274 237L288 224L302 237" stroke="#D094FF" stroke-width="4" stroke-linecap="round" stroke-linejoin="round"/>
<path d="M293.286 41.2857V45.7143H297.714V41.2857H293.286ZM293.286 36.8571H297.714V30.2143C297.714 29.627 297.948 29.0638 298.363 28.6485C298.778 28.2333 299.341 28 299.929 28C300.516 28 301.079 28.2333 301.494 28.6485C301.91 29.0638 302.143 29.627 302.143 30.2143V36.8571H308.786C309.373 36.8571 309.936 37.0904 310.351 37.5057C310.767 37.921 311 38.4842 311 39.0714C311 39.6587 310.767 40.2219 310.351 40.6372C309.936 41.0524 309.373 41.2857 308.786 41.2857H302.143V45.7143H308.786C309.373 45.7143 309.936 45.9476 310.351 46.3628C310.767 46.7781 311 47.3413 311 47.9286C311 48.5158 310.767 49.079 310.351 49.4943C309.936 49.9096 309.373 50.1429 308.786 50.1429H302.143V56.7857C302.143 57.373 301.91 57.9362 301.494 58.3515C301.079 58.7667 300.516 59 299.929 59C299.341 59 298.778 58.7667 298.363 58.3515C297.948 57.9362 297.714 57.373 297.714 56.7857V50.1429H293.286V56.7857C293.286 57.373 293.052 57.9362 292.637 58.3515C292.222 58.7667 291.659 59 291.071 59C290.484 59 289.921 58.7667 289.506 58.3515C289.09 57.9362 288.857 57.373 288.857 56.7857V50.1429H282.214C281.627 50.1429 281.064 49.9096 280.649 49.4943C280.233 49.079 280 48.5158 280 47.9286C280 47.3413 280.233 46.7781 280.649 46.3628C281.064 45.9476 281.627 45.7143 282.214 45.7143H288.857V41.2857H282.214C281.627 41.2857 281.064 41.0524 280.649 40.6372C280.233 40.2219 280 39.6587 280 39.0714C280 38.4842 280.233 37.921 280.649 37.5057C281.064 37.0904 281.627 36.8571 282.214 36.8571H288.857V30.2143C288.857 29.627 289.09 29.0638 289.506 28.6485C289.921 28.2333 290.484 28 291.071 28C291.659 28 292.222 28.2333 292.637 28.6485C293.052 29.0638 293.286 29.627 293.286 30.2143V36.8571Z" fill="#FF9494"/>
<path d="M298.286 500.286V504.714H302.714V500.286H298.286ZM298.286 495.857H302.714V489.214C302.714 488.627 302.948 488.064 303.363 487.649C303.778 487.233 304.341 487 304.929 487C305.516 487 306.079 487.233 306.494 487.649C306.91 488.064 307.143 488.627 307.143 489.214V495.857H313.786C314.373 495.857 314.936 496.09 315.351 496.506C315.767 496.921 316 497.484 316 498.071C316 498.659 315.767 499.222 315.351 499.637C314.936 500.052 314.373 500.286 313.786 500.286H307.143V504.714H313.786C314.373 504.714 314.936 504.948 315.351 505.363C315.767 505.778 316 506.341 316 506.929C316 507.516 315.767 508.079 315.351 508.494C314.936 508.91 314.373 509.143 313.786 509.143H307.143V515.786C307.143 516.373 306.91 516.936 306.494 517.351C306.079 517.767 305.516 518 304.929 518C304.341 518 303.778 517.767 303.363 517.351C302.948 516.936 302.714 516.373 302.714 515.786V509.143H298.286V515.786C298.286 516.373 298.052 516.936 297.637 517.351C297.222 517.767 296.659 518 296.071 518C295.484 518 294.921 517.767 294.506 517.351C294.09 516.936 293.857 516.373 293.857 515.786V509.143H287.214C286.627 509.143 286.064 508.91 285.649 508.494C285.233 508.079 285 507.516 285 506.929C285 506.341 285.233 505.778 285.649 505.363C286.064 504.948 286.627 504.714 287.214 504.714H293.857V500.286H287.214C286.627 500.286 286.064 500.052 285.649 499.637C285.233 499.222 285 498.659 285 498.071C285 497.484 285.233 496.921 285.649 496.506C286.064 496.09 286.627 495.857 287.214 495.857H293.857V489.214C293.857 488.627 294.09 488.064 294.506 487.649C294.921 487.233 295.484 487 296.071 487C296.659 487 297.222 487.233 297.637 487.649C298.052 488.064 298.286 488.627 298.286 489.214V495.857Z" fill="#FF9494"/>
<path d="M827.714 551.286V555.714H823.286V551.286H827.714ZM827.714 546.857H823.286V540.214C823.286 539.627 823.052 539.064 822.637 538.649C822.222 538.233 821.659 538 821.071 538C820.484 538 819.921 538.233 819.506 538.649C819.09 539.064 818.857 539.627 818.857 540.214V546.857H812.214C811.627 546.857 811.064 547.09 810.649 547.506C810.233 547.921 810 548.484 810 549.071C810 549.659 810.233 550.222 810.649 550.637C811.064 551.052 811.627 551.286 812.214 551.286H818.857V555.714H812.214C811.627 555.714 811.064 555.948 810.649 556.363C810.233 556.778 810 557.341 810 557.929C810 558.516 810.233 559.079 810.649 559.494C811.064 559.91 811.627 560.143 812.214 560.143H818.857V566.786C818.857 567.373 819.09 567.936 819.506 568.351C819.921 568.767 820.484 569 821.071 569C821.659 569 822.222 568.767 822.637 568.351C823.052 567.936 823.286 567.373 823.286 566.786V560.143H827.714V566.786C827.714 567.373 827.948 567.936 828.363 568.351C828.778 568.767 829.341 569 829.929 569C830.516 569 831.079 568.767 831.494 568.351C831.91 567.936 832.143 567.373 832.143 566.786V560.143H838.786C839.373 560.143 839.936 559.91 840.351 559.494C840.767 559.079 841 558.516 841 557.929C841 557.341 840.767 556.778 840.351 556.363C839.936 555.948 839.373 555.714 838.786 555.714H832.143V551.286H838.786C839.373 551.286 839.936 551.052 840.351 550.637C840.767 550.222 841 549.659 841 549.071C841 548.484 840.767 547.921 840.351 547.506C839.936 547.09 839.373 546.857 838.786 546.857H832.143V540.214C832.143 539.627 831.91 539.064 831.494 538.649C831.079 538.233 830.516 538 829.929 538C829.341 538 828.778 538.233 828.363 538.649C827.948 539.064 827.714 539.627 827.714 540.214V546.857Z" fill="#FF9494"/>
<path d="M893.714 589.286V591.714H891.286V589.286H893.714ZM893.714 586.857H891.286V583.214C891.286 582.892 891.158 582.583 890.93 582.356C890.702 582.128 890.393 582 890.071 582C889.749 582 889.441 582.128 889.213 582.356C888.985 582.583 888.857 582.892 888.857 583.214V586.857H885.214C884.892 586.857 884.583 586.985 884.356 587.213C884.128 587.441 884 587.749 884 588.071C884 588.393 884.128 588.702 884.356 588.93C884.583 589.158 884.892 589.286 885.214 589.286H888.857V591.714H885.214C884.892 591.714 884.583 591.842 884.356 592.07C884.128 592.298 884 592.607 884 592.929C884 593.251 884.128 593.559 884.356 593.787C884.583 594.015 884.892 594.143 885.214 594.143H888.857V597.786C888.857 598.108 888.985 598.417 889.213 598.644C889.441 598.872 889.749 599 890.071 599C890.393 599 890.702 598.872 890.93 598.644C891.158 598.417 891.286 598.108 891.286 597.786V594.143H893.714V597.786C893.714 598.108 893.842 598.417 894.07 598.644C894.298 598.872 894.607 599 894.929 599C895.251 599 895.559 598.872 895.787 598.644C896.015 598.417 896.143 598.108 896.143 597.786V594.143H899.786C900.108 594.143 900.417 594.015 900.644 593.787C900.872 593.559 901 593.251 901 592.929C901 592.607 900.872 592.298 900.644 592.07C900.417 591.842 900.108 591.714 899.786 591.714H896.143V589.286H899.786C900.108 589.286 900.417 589.158 900.644 588.93C900.872 588.702 901 588.393 901 588.071C901 587.749 900.872 587.441 900.644 587.213C900.417 586.985 900.108 586.857 899.786 586.857H896.143V583.214C896.143 582.892 896.015 582.583 895.787 582.356C895.559 582.128 895.251 582 894.929 582C894.607 582 894.298 582.128 894.07 582.356C893.842 582.583 893.714 582.892 893.714 583.214V586.857Z" fill="#FF9494"/>
<path d="M201.714 184.714V186.286H203.286V184.714H201.714ZM201.714 183.143H203.286V180.786C203.286 180.577 203.368 180.377 203.516 180.23C203.663 180.083 203.863 180 204.071 180C204.28 180 204.48 180.083 204.627 180.23C204.774 180.377 204.857 180.577 204.857 180.786V183.143H207.214C207.423 183.143 207.623 183.226 207.77 183.373C207.917 183.52 208 183.72 208 183.929C208 184.137 207.917 184.337 207.77 184.484C207.623 184.632 207.423 184.714 207.214 184.714H204.857V186.286H207.214C207.423 186.286 207.623 186.368 207.77 186.516C207.917 186.663 208 186.863 208 187.071C208 187.28 207.917 187.48 207.77 187.627C207.623 187.774 207.423 187.857 207.214 187.857H204.857V190.214C204.857 190.423 204.774 190.623 204.627 190.77C204.48 190.917 204.28 191 204.071 191C203.863 191 203.663 190.917 203.516 190.77C203.368 190.623 203.286 190.423 203.286 190.214V187.857H201.714V190.214C201.714 190.423 201.632 190.623 201.484 190.77C201.337 190.917 201.137 191 200.929 191C200.72 191 200.52 190.917 200.373 190.77C200.226 190.623 200.143 190.423 200.143 190.214V187.857H197.786C197.577 187.857 197.377 187.774 197.23 187.627C197.083 187.48 197 187.28 197 187.071C197 186.863 197.083 186.663 197.23 186.516C197.377 186.368 197.577 186.286 197.786 186.286H200.143V184.714H197.786C197.577 184.714 197.377 184.632 197.23 184.484C197.083 184.337 197 184.137 197 183.929C197 183.72 197.083 183.52 197.23 183.373C197.377 183.226 197.577 183.143 197.786 183.143H200.143V180.786C200.143 180.577 200.226 180.377 200.373 180.23C200.52 180.083 200.72 180 200.929 180C201.137 180 201.337 180.083 201.484 180.23C201.632 180.377 201.714 180.577 201.714 180.786V183.143Z" fill="#FF9494"/>
</svg>
