<svg width="33" height="42" viewBox="0 0 33 42" fill="none" xmlns="http://www.w3.org/2000/svg">
<circle r="11" transform="matrix(-1 0 0 1 22 21)" fill="#F46B8B"/>
<circle r="11" transform="matrix(-1 0 0 1 13 11)" fill="#FFBECD"/>
<path d="M16.5 2C13.4344 2 10.4376 2.90906 7.88867 4.61222C5.33971 6.31538 3.35303 8.73615 2.17987 11.5684C1.00672 14.4007 0.699764 17.5172 1.29784 20.5239C1.89591 23.5306 3.37214 26.2924 5.53985 28.4601C7.70757 30.6279 10.4694 32.1041 13.4761 32.7022C16.4828 33.3002 19.5993 32.9933 22.4316 31.8201C25.2638 30.647 27.6846 28.6603 29.3878 26.1113C31.0909 23.5624 32 20.5656 32 17.5C32 15.4645 31.5991 13.449 30.8201 11.5684C30.0412 9.68786 28.8995 7.97915 27.4602 6.53985C26.0208 5.10054 24.3121 3.95881 22.4316 3.17987C20.551 2.40092 18.5355 2 16.5 2V2Z" stroke="black" stroke-miterlimit="10"/>
<path d="M13 39.0703H20.0711H13Z" fill="white"/>
<path d="M13 39.0703L20.0711 39.0703" stroke="black" stroke-miterlimit="10" stroke-linecap="round"/>
<path d="M16 41.4219L17.4142 41.4219L16 41.4219Z" fill="white"/>
<path d="M16 41.4219L17.4142 41.4219" stroke="black" stroke-miterlimit="10" stroke-linecap="round"/>
<path d="M11 36.6211L22.3136 36.6212L11 36.6211Z" fill="white"/>
<path d="M11 36.6211L22.3136 36.6212" stroke="black" stroke-miterlimit="10" stroke-linecap="round"/>
</svg>
